<svg width="14" height="13" viewBox="0 0 14 13" fill="none" xmlns="http://www.w3.org/2000/svg">
<path d="M7.21386 0.789062C7.0498 0.643229 6.89485 0.643229 6.74902 0.789062L1.0342 6.53125C0.870105 6.67708 0.870105 6.82292 1.0342 6.96875L6.74902 12.7109C6.89485 12.8568 7.0498 12.8568 7.21386 12.7109L7.76074 12.1641C7.81543 12.1094 7.84277 12.0365 7.84277 11.9453C7.84277 11.8542 7.81543 11.7721 7.76074 11.6992L3.5225 7.46094H12.8467C13.0654 7.46094 13.1748 7.35156 13.1748 7.13281V6.36719C13.1748 6.14844 13.0654 6.03906 12.8467 6.03906H3.5225L7.76074 1.80078C7.90657 1.63672 7.90657 1.48177 7.76074 1.33594L7.21386 0.789062Z" fill="black"/>
</svg>
