<svg width="40" height="40" viewBox="0 0 40 40" fill="none" xmlns="http://www.w3.org/2000/svg">
<rect width="40" height="40" rx="8" fill="#FCFCFC"/>
<path fill-rule="evenodd" clip-rule="evenodd" d="M32.7999 12.8002H24.7999C24.5871 12.8002 24.3839 12.7154 24.2335 12.5666C24.0847 12.4162 23.9999 12.213 23.9999 12.0002C23.9999 11.7874 24.0847 11.5842 24.2335 11.4338C24.3839 11.285 24.5871 11.2002 24.7999 11.2002H32.7999C33.0127 11.2002 33.2159 11.285 33.3663 11.4338C33.5151 11.5842 33.5999 11.7874 33.5999 12.0002C33.5999 12.213 33.5151 12.4162 33.3663 12.5666C33.2159 12.7154 33.0127 12.8002 32.7999 12.8002ZM28.7999 16.0002C30.4975 16.0002 32.1247 16.6738 33.3247 17.8754C34.5263 19.0754 35.1999 20.7026 35.1999 22.4002H25.1039C25.0575 22.8978 25.1215 23.3986 25.2911 23.869C25.4607 24.3378 25.7311 24.765 26.0831 25.1186C26.4367 25.4706 26.8623 25.7426 27.3327 25.9122C27.8015 26.0818 28.3023 26.1458 28.7999 26.101C29.5167 26.1794 30.2383 26.0146 30.8511 25.6338C31.4623 25.253 31.9295 24.677 32.1759 24.0002H34.9759C34.6751 25.157 34.0559 26.205 33.1887 27.0274C32.3215 27.8498 31.2415 28.413 30.0703 28.6514C28.8991 28.8914 27.6847 28.797 26.5647 28.381C25.4447 27.9634 24.4639 27.2418 23.7327 26.2962C23.0031 25.349 22.5519 24.2178 22.4335 23.029C22.3135 21.8402 22.5295 20.6418 23.0575 19.5682C23.5855 18.4962 24.4031 17.5938 25.4175 16.9634C26.4335 16.3314 27.6047 15.9986 28.7999 16.0002ZM32.1119 20.8002C31.8191 20.173 31.3503 19.645 30.7631 19.2802C30.1743 18.9154 29.4911 18.7314 28.7999 18.7506C28.0863 18.6914 27.3727 18.8562 26.7583 19.2242C26.1439 19.5922 25.6607 20.1426 25.3759 20.8002H32.1119ZM15.1999 28.8002H6.3999V11.2002H14.3999C15.2639 11.2002 16.1135 11.4354 16.8559 11.877C17.5983 12.3202 18.2063 12.9554 18.6191 13.717C19.0303 14.477 19.2287 15.3346 19.1919 16.1986C19.1567 17.0626 18.8879 17.901 18.4159 18.6242C19.3871 19.309 20.1151 20.285 20.4943 21.4114C20.8735 22.5378 20.8863 23.7554 20.5279 24.8882C20.1695 26.021 19.4607 27.0098 18.5023 27.7138C17.5455 28.4178 16.3887 28.797 15.1999 28.8002ZM14.3999 14.4002H9.5999V17.6002H14.3999C14.8239 17.6002 15.2319 17.4322 15.5311 17.1314C15.8319 16.8322 15.9999 16.4242 15.9999 16.0002C15.9999 15.5762 15.8319 15.1682 15.5311 14.869C15.2319 14.5682 14.8239 14.4002 14.3999 14.4002ZM15.1999 20.8002H9.5999V25.6002H15.1999C15.8367 25.6002 16.4463 25.3474 16.8975 24.8978C17.3471 24.4466 17.5999 23.837 17.5999 23.2002C17.5999 22.5634 17.3471 21.9538 16.8975 21.5026C16.4463 21.053 15.8367 20.8002 15.1999 20.8002Z" fill="#0078FF"/>
</svg>
