<svg width="40" height="40" viewBox="0 0 40 40" fill="none" xmlns="http://www.w3.org/2000/svg">
<rect width="40" height="40" rx="8" fill="#FCFCFC"/>
<path fill-rule="evenodd" clip-rule="evenodd" d="M14.4 8H25.6C27.2976 8 28.9248 8.6736 30.1248 9.8752C31.3264 11.0752 32 12.7024 32 14.4V25.6C32 27.2976 31.3264 28.9248 30.1248 30.1248C28.9248 31.3264 27.2976 32 25.6 32H14.4C12.7024 32 11.0752 31.3264 9.8752 30.1248C8.6736 28.9248 8 27.2976 8 25.6V14.4C8 12.7024 8.6736 11.0752 9.8752 9.8752C11.0752 8.6736 12.7024 8 14.4 8ZM14.4 11.2H25.6C26.448 11.2 27.2624 11.5376 27.8624 12.1376C28.4624 12.7376 28.8 13.552 28.8 14.4V25.6C28.8 26.448 28.4624 27.2624 27.8624 27.8624C27.2624 28.4624 26.448 28.8 25.6 28.8H14.4C13.552 28.8 12.7376 28.4624 12.1376 27.8624C11.5376 27.2624 11.2 26.448 11.2 25.6V14.4C11.2 13.552 11.5376 12.7376 12.1376 12.1376C12.7376 11.5376 13.552 11.2 14.4 11.2ZM20 14.4C21.1072 14.4 22.1904 14.728 23.112 15.344C24.032 15.9584 24.7504 16.8336 25.1744 17.8576C25.5968 18.88 25.7088 20.0064 25.4928 21.0928C25.2768 22.1792 24.7424 23.176 23.96 23.96C23.176 24.7424 22.1792 25.2768 21.0928 25.4928C20.0064 25.7088 18.88 25.5968 17.8576 25.1744C16.8336 24.7504 15.9584 24.032 15.344 23.1104C14.728 22.1904 14.4 21.1072 14.4 20C14.4 18.5152 14.9904 17.0896 16.04 16.04C17.0912 14.9904 18.5152 14.4 20 14.4ZM20 17.6C20.4752 17.6 20.9392 17.7408 21.3328 18.0048C21.728 18.2688 22.0352 18.6432 22.2176 19.0816C22.3984 19.52 22.4464 20.0032 22.3536 20.4688C22.2608 20.9344 22.032 21.3616 21.6976 21.6976C21.3616 22.032 20.9344 22.2608 20.4688 22.3536C20.0032 22.4464 19.52 22.3984 19.0816 22.2176C18.6432 22.0352 18.2688 21.728 18.0048 21.3328C17.7408 20.9392 17.6 20.4752 17.6 20C17.6 19.3632 17.8528 18.7536 18.3024 18.3024C18.7536 17.8528 19.3632 17.6 20 17.6Z" fill="url(#paint0_linear_9_13063)"/>
<defs>
<linearGradient id="paint0_linear_9_13063" x1="31.2" y1="8.8" x2="9.6" y2="32" gradientUnits="userSpaceOnUse">
<stop stop-color="#7737AA"/>
<stop offset="0.5" stop-color="#F2141A"/>
<stop offset="1" stop-color="#F6B305"/>
</linearGradient>
</defs>
</svg>
