<svg width="61" height="61" viewBox="0 0 61 61" fill="none" xmlns="http://www.w3.org/2000/svg">
<rect width="61" height="61" rx="1.87692" fill="black"/>
<path d="M29.6242 15.9541C26.479 15.9541 23.5943 17.7017 22.138 20.4895L18.7068 27.0578L15.2755 20.4895C13.8192 17.7017 10.9345 15.9541 7.78931 15.9541H4.69238L15.0656 33.5173V45.5076H22.348V33.4751L32.7212 15.9541H29.6242Z" fill="white"/>
<path d="M38.0559 30.8233H43.6024C45.6629 30.8233 47.4694 30.5419 49.0219 29.9789C50.6026 29.3879 51.8445 28.5435 52.7478 27.4458C53.6792 26.3481 54.145 25.0252 54.145 23.4772C54.145 21.7884 53.6792 20.3952 52.7478 19.2975C51.8445 18.1716 50.6026 17.3413 49.0219 16.8065C47.4694 16.2436 45.6629 15.9621 43.6024 15.9621H32.7212V45.5156H44.3222C46.665 45.5156 48.6973 45.2342 50.4191 44.6712C52.1409 44.0802 53.4675 43.1795 54.399 41.9692C55.3587 40.7589 55.8385 39.1687 55.8385 37.1984C55.8385 35.7067 55.4998 34.4401 54.8224 33.3987C54.1732 32.3291 53.2982 31.4566 52.1973 30.7811C51.0965 30.0774 49.8687 29.5708 48.5138 29.2612C47.1589 28.9516 45.7617 28.7968 44.3222 28.7968H38.0559V32.681H43.5177C44.2234 32.681 44.8585 32.7513 45.423 32.8921C46.0158 33.0047 46.538 33.2017 46.9896 33.4831C47.4412 33.7646 47.794 34.1305 48.0481 34.5808C48.3021 35.0312 48.4291 35.566 48.4291 36.1852C48.4291 37.1421 48.2033 37.9021 47.7517 38.465C47.3283 38.9998 46.7497 39.3938 46.0158 39.6472C45.2819 39.8723 44.4492 39.9849 43.5177 39.9849H39.8765V21.4929H42.8403C44.0823 21.4929 45.042 21.7462 45.7194 22.2528C46.3968 22.7594 46.7355 23.5194 46.7355 24.5326C46.7355 25.2082 46.5803 25.7852 46.2698 26.2636C45.9593 26.714 45.5077 27.0658 44.9149 27.3191C44.3504 27.5724 43.6589 27.6991 42.8403 27.6991H38.0559V30.8233Z" fill="white"/>
</svg>
