<svg width="40" height="40" viewBox="0 0 40 40" fill="none" xmlns="http://www.w3.org/2000/svg">
<rect width="40" height="40" rx="8" fill="#FCFCFC"/>
<path fill-rule="evenodd" clip-rule="evenodd" d="M27.2068 27.372C27.178 27.6904 27.0532 27.9928 26.85 28.2408C26.6484 28.4872 26.3764 28.668 26.0692 28.7592C25.762 28.8504 25.4356 28.8472 25.1316 28.7512C24.826 28.6552 24.5572 28.4696 24.3588 28.2184C22.6148 26.8312 19.8948 24.8344 19.8948 24.8344C19.8948 24.8344 17.9268 28.3016 17.5748 28.6568C17.458 28.7544 17.3236 28.828 17.178 28.8696C17.0308 28.9128 16.8788 28.924 16.7284 28.9048C16.5764 28.884 16.4324 28.8328 16.3028 28.7528C16.1732 28.6744 16.0612 28.5688 15.9748 28.444C15.9572 28.3896 15.9348 28.3352 15.9108 28.284L17.0148 22.7608L24.8868 15.028L14.1508 21.1544C14.1508 21.1544 9.30279 19.7048 8.58279 19.4216C8.39719 19.3208 8.24359 19.1688 8.14119 18.9832C8.03879 18.7976 7.98918 18.588 8.00198 18.3768C8.01318 18.1656 8.08521 17.9624 8.20681 17.7896C8.33001 17.6168 8.4996 17.4824 8.6948 17.4024C9.7188 16.8808 27.7828 9.98161 28.3908 9.80401C28.9988 9.62641 30.5988 9.16401 30.4228 10.7208C30.2468 12.2776 27.3828 26.5176 27.2068 27.372Z" fill="#11AADE"/>
</svg>
