<svg width="18" height="15" viewBox="0 0 18 15" fill="none" xmlns="http://www.w3.org/2000/svg">
<path d="M0.456859 6.56192C0.496793 6.54194 0.536747 6.52297 0.575683 6.50499C1.25257 6.19141 1.93845 5.89781 2.62332 5.6042C2.66026 5.6042 2.72215 5.56126 2.75709 5.54728C2.81 5.52431 2.86292 5.50234 2.91584 5.47937L3.22034 5.34855C3.42401 5.26166 3.62666 5.17478 3.83033 5.0879C4.23666 4.91413 4.64299 4.74037 5.04932 4.5656C5.86199 4.21807 6.67568 3.86954 7.48834 3.52201C8.30101 3.17447 9.11467 2.82594 9.92733 2.47841C10.74 2.13088 11.5537 1.78235 12.3663 1.43481C13.179 1.08728 13.9927 0.73875 14.8053 0.391217C14.986 0.313322 15.1817 0.197478 15.3754 0.163524C15.5381 0.134563 15.6969 0.0786386 15.8606 0.0476803C16.1711 -0.0112404 16.5135 -0.0352083 16.811 0.0936184C16.9139 0.138558 17.0087 0.201473 17.0876 0.280367C17.465 0.653864 17.412 1.26704 17.3322 1.79233C16.7761 5.45341 16.22 9.11548 15.6629 12.7766C15.587 13.2789 15.4832 13.8301 15.0869 14.1477C14.7514 14.4163 14.2742 14.4463 13.8599 14.3325C13.4456 14.2176 13.0802 13.9769 12.7217 13.7403C11.2352 12.7556 9.74763 11.7709 8.26107 10.7862C7.90765 10.5525 7.5143 10.247 7.5183 9.82253C7.52029 9.56687 7.67303 9.33918 7.82877 9.13645C9.12066 7.45072 10.9846 6.29228 12.3713 4.68444C12.567 4.45775 12.7208 4.0483 12.4522 3.91747C12.2925 3.83958 12.1087 3.94544 11.963 4.0463C10.13 5.31959 8.29801 6.59387 6.46502 7.86716C5.867 8.2826 5.24003 8.71002 4.51921 8.81189C3.87427 8.90376 3.22534 8.72401 2.60136 8.54025C2.07822 8.38646 1.55606 8.22867 1.03591 8.06589C0.759368 7.98001 0.473834 7.88713 0.260185 7.69239C0.046535 7.49766 -0.0762469 7.1701 0.0525418 6.91045C0.133409 6.74766 0.290155 6.6448 0.454885 6.56092L0.456859 6.56192Z" fill="#FEFFFC"/>
</svg>
