<svg width="40" height="40" viewBox="0 0 40 40" fill="none" xmlns="http://www.w3.org/2000/svg">
<rect width="40" height="40" rx="8" fill="#FCFCFC"/>
<path fill-rule="evenodd" clip-rule="evenodd" d="M25.6004 30.4001H14.4004C12.6324 30.3265 10.9668 29.5553 9.7668 28.2561C8.5684 26.9553 7.93161 25.2337 8.00041 23.4657V16.5329C7.93321 14.7665 8.56841 13.0433 9.76841 11.7441C10.9684 10.4449 12.634 9.6737 14.4004 9.6001H25.6004C27.3668 9.6737 29.0324 10.4449 30.2324 11.7457C31.4324 13.0449 32.0676 14.7665 32.0004 16.5345V23.4673C32.0676 25.2353 31.4324 26.9569 30.2324 28.2561C29.0324 29.5553 27.3668 30.3265 25.6004 30.4001ZM28.8004 16.4081C28.85 15.5089 28.5396 14.6257 27.9412 13.9521C27.3412 13.2801 26.4996 12.8705 25.6004 12.8161H14.4004C13.5012 12.8705 12.6596 13.2801 12.0596 13.9521C11.4596 14.6257 11.1508 15.5089 11.2004 16.4081V23.5905C11.1508 24.4897 11.4596 25.3729 12.0596 26.0465C12.6596 26.7185 13.5012 27.1281 14.4004 27.1825H25.6004C26.4996 27.1281 27.3412 26.7185 27.9412 26.0465C28.5396 25.3729 28.85 24.4897 28.8004 23.5905V16.4081ZM17.6004 15.9793L24.0004 20.0001L17.6004 24.0177V15.9793Z" fill="#E62117"/>
</svg>
