<svg width="225" height="61" viewBox="0 0 225 61" fill="none" xmlns="http://www.w3.org/2000/svg">
<g clip-path="url(#clip0_2_3589)">
<path d="M130.666 18.1546L112.356 53.3393H101.779L107.132 43.4848L99.1318 18.1546H109.164L113.635 33.3626L120.346 18.1546H130.666ZM143.692 46.1913L147.012 25.0944H141.659C140.103 31.4393 139.964 32.173 139.756 32.8967C138.259 39.311 136.158 45.993 125.045 46.915L123.617 39.5093C126.74 38.8451 128.158 38.1908 129.446 36.198C130.259 34.8795 131.141 32.6984 133.114 24.4302L134.601 18.1447H157.59L153.178 46.1814H143.692V46.1913ZM185.942 46.1913L192.93 18.1546H203.24L207.443 31.5087L214.967 18.1546H224.801V46.1913H215.513L215.651 31.4493L207.245 46.1913H202.972L198.224 31.5087L194.903 46.1913H185.942ZM5.55138 8.96437C10.0321 7.04106 14.3047 6.51562 18.9837 6.51562C24.8127 6.51562 31.9997 9.16265 32.1385 16.5684C32.2079 20.7323 30.4434 23.9741 25.7644 25.7586C29.4223 27.0177 31.058 30.3885 31.058 33.8286C31.058 43.1477 22.1758 46.925 14.0371 46.925C9.6257 46.925 3.93553 45.9336 0 43.7525L1.49689 35.286C5.15485 37.3382 9.02099 38.5278 13.5017 38.5278C16.8227 38.5278 20.2824 37.6058 20.2824 33.9674C20.2824 30.7255 17.4373 30.2596 14.4534 30.2596H8.14863L9.29856 22.1896H14.9986C18.3889 22.1896 21.918 21.6642 21.8486 17.8969C21.7099 14.8533 17.7743 14.5856 15.8809 14.5856C11.4695 14.655 8.21803 15.577 4.08423 17.9563L5.55138 8.96437ZM185.664 34.2252H167.83C167.691 39.4498 171.627 40.0447 173.798 40.0447C177.595 40.0447 180.985 39.2515 184.306 37.467L183.156 44.8034C179.498 46.5879 175.761 47.1133 171.766 47.1133C159.424 47.1133 157.996 38.5179 157.996 34.1558C158.066 24.8366 163.488 17.2227 173.867 17.2227C184.653 17.2326 186.953 26.0957 185.664 34.2252ZM173.253 23.3793C169.525 23.3793 168.504 26.4824 168.028 29.5259H176.643C176.99 27.0177 176.99 23.3793 173.253 23.3793ZM52.8174 24.7078C52.411 24.5789 51.7964 24.5095 51.3304 24.5095C45.7691 24.5095 42.5176 29.6053 42.5176 35.0282C42.4383 37.8636 43.727 39.6481 45.898 39.6481C47.4544 39.6481 48.9513 39.3804 50.577 37.5959L52.8174 24.7078ZM63.2659 18.1546L58.8545 46.1913H49.6948L50.1706 43.0783H49.9723C47.3255 46.3896 44.2723 46.9844 42.0418 46.9844C36.1434 46.9844 32.8225 43.4154 32.8225 36.208C32.8225 23.9047 41.566 17.3615 52.8273 17.3615C57.0206 17.3615 60.4109 17.7581 63.2659 18.1546ZM83.7366 14.3873L83.122 18.0951C85.0253 17.4309 85.8977 17.3714 88.2769 17.3714C95.6027 17.3714 99.5283 22.1301 99.5283 29.2781C99.5283 41.1848 91.6672 46.6672 82.5074 46.6672C80.951 46.6672 79.3153 46.5383 78.7106 46.34L77.5607 53.3492H67.935L71.9399 28.6833H71.7417C70.2547 29.744 68.0143 32.6488 66.8545 34.3739C66.448 34.9687 66.0416 35.2364 65.5658 35.0381L65.427 34.9687C64.9512 34.701 64.8124 34.1756 65.1593 33.3131C66.5868 29.9423 68.9561 25.4414 72.7528 22.5366L74.1109 14.4071H83.7366V14.3873ZM82.0514 25.1043L79.7416 39.1227C80.4851 39.3209 81.3674 39.3209 81.7044 39.3209C86.9287 39.3209 89.5656 34.6911 89.5061 29.863C89.4367 26.75 87.8803 24.5095 84.7577 24.5095C83.3996 24.5095 82.5867 24.7672 82.0514 25.1043Z" fill="#9392A0"/>
</g>
<defs>
<clipPath id="clip0_2_3589">
<rect width="224.801" height="60.2728" fill="white"/>
</clipPath>
</defs>
</svg>
