<svg width="226" height="61" viewBox="0 0 226 61" fill="none" xmlns="http://www.w3.org/2000/svg">
<g clip-path="url(#clip0_2_3567)">
<path d="M83.2048 11.2662C81.9674 9.74453 80.8014 8.43687 79.7068 7.34319C78.5884 6.27329 77.5176 5.46493 76.4705 4.96564C75.9708 4.72788 75.0428 4.5139 73.7102 4.37125C72.3776 4.20482 70.8309 4.13349 69.07 4.13349C68.7606 4.13349 68.4275 4.13349 68.0467 4.15727C67.666 4.18105 67.2853 4.18104 66.9283 4.20482C66.5714 4.22859 66.2383 4.2286 65.9051 4.25237C65.5958 4.27615 65.3578 4.27615 65.215 4.27615C65.1912 4.46635 65.1436 4.63278 65.096 4.82298C65.0485 5.01319 65.0247 5.20339 64.9771 5.44115C64.9533 5.67891 64.9057 5.98799 64.8819 6.3684C64.8581 6.7488 64.8343 7.20054 64.7867 7.74737C64.7629 8.7935 64.7391 9.93473 64.7153 11.1948C64.6915 12.4312 64.6915 13.6199 64.6915 14.7374C64.6915 15.8548 64.6915 16.8059 64.6915 17.6142C64.6915 18.3988 64.6915 18.8506 64.6915 19.017C64.7867 19.017 65.0484 19.017 65.5006 19.017C65.9765 19.017 66.5 18.9932 67.0949 18.9694C67.6898 18.9457 68.2847 18.8981 68.9034 18.8506C69.5221 18.803 70.0456 18.7317 70.4739 18.6366C71.5448 18.3988 72.4014 18.0897 73.0439 17.6856C73.6626 17.3051 74.1623 16.8296 74.5193 16.2828C74.8762 15.736 75.138 15.1416 75.2807 14.4996C75.4235 13.8577 75.5663 13.1682 75.6853 12.4074H76.2326V26.9105H75.6853C75.4473 25.9595 75.0904 24.9371 74.6382 23.8672C74.1861 22.7973 73.6626 21.9889 73.0201 21.4183C72.449 20.919 71.8541 20.5149 71.2116 20.2771C70.5691 20.0156 69.8077 19.8729 68.951 19.8016C68.4989 19.7778 68.1181 19.754 67.785 19.7303C67.4518 19.7065 67.1425 19.7065 66.8332 19.7065C66.5238 19.7065 66.2145 19.7065 65.8813 19.7065C65.5482 19.7065 65.1436 19.7065 64.6677 19.7065C64.6677 20.6575 64.6677 21.6323 64.6677 22.5833C64.6677 23.5106 64.6677 24.414 64.6677 25.2937C64.6677 26.1259 64.6677 26.9105 64.6915 27.6C64.7153 28.3132 64.7153 28.9076 64.7153 29.4307C64.7391 30.3817 64.7867 31.309 64.8819 32.1411C64.9533 32.997 65.1198 33.639 65.4054 34.0669C65.6671 34.4949 66.1431 34.804 66.7856 35.0417C67.4281 35.2557 68.3561 35.4221 69.5935 35.4697V35.9214H55.2207V35.4697C55.9584 35.3508 56.6723 35.1606 57.3147 34.8753C57.9572 34.6138 58.4808 34.2334 58.9091 33.7578C59.0519 33.5676 59.1708 33.3061 59.266 32.9733C59.3612 32.6166 59.4326 32.2362 59.504 31.7845C59.5754 31.3327 59.623 30.8572 59.6706 30.3579C59.6943 29.8587 59.7181 29.3831 59.7181 28.8839C59.7181 28.4559 59.7181 27.8853 59.7419 27.172C59.7657 26.4587 59.7657 25.6741 59.7895 24.8182C59.8133 23.9623 59.8133 23.0826 59.8133 22.1791C59.8133 21.2519 59.8133 20.3722 59.8133 19.5638V10.7669C59.8133 10.22 59.8133 9.6732 59.7895 9.10258C59.7657 8.53197 59.7419 7.98514 59.6943 7.48585C59.6468 6.98656 59.5754 6.51105 59.4802 6.10686C59.385 5.70268 59.2184 5.41738 59.0519 5.22717C58.5997 4.75166 58.1238 4.44257 57.6241 4.29992C57.1006 4.15726 56.4581 4.03839 55.649 3.91951V3.46777H80.6348L83.6807 11.0284L83.2048 11.2662Z" fill="#9392A0"/>
<path d="M104.621 35.8735V35.4218C105.383 35.3029 106.073 35.1127 106.715 34.8274C107.358 34.5659 107.905 34.1617 108.357 33.6624C108.5 33.4722 108.619 33.2344 108.69 32.9016C108.762 32.5687 108.833 32.1883 108.857 31.7366C108.905 31.2848 108.928 30.8093 108.952 30.31C108.976 29.8108 108.976 29.3352 108.976 28.836C108.976 28.408 108.976 27.8374 109 27.1241C109.024 26.4108 109.024 25.6263 109.047 24.7703C109.071 23.9144 109.071 23.0347 109.071 22.1312C109.071 21.204 109.071 20.3243 109.071 19.5159V10.7665C109.071 10.2197 109.071 9.69664 109.071 9.1498C109.071 8.60296 109.047 8.10367 109 7.65193C108.952 7.17642 108.881 6.77224 108.786 6.39183C108.69 6.01142 108.571 5.72611 108.381 5.51213C107.953 5.01285 107.453 4.63244 106.834 4.41846C106.216 4.20448 105.526 4.03805 104.74 3.94295V3.49121H118.185V3.94295C117.566 4.03805 116.876 4.20448 116.162 4.44223C115.449 4.67999 114.877 5.1555 114.497 5.89254C114.235 6.39183 114.092 7.05755 114.068 7.81837C114.045 8.60296 114.021 9.34 113.997 10.0295C113.997 10.7903 113.997 11.5273 113.973 12.2644C113.949 13.0014 113.949 13.7385 113.949 14.4993C113.949 15.2601 113.949 16.0209 113.949 16.8531C113.949 17.6377 113.949 18.4936 113.949 19.4208V29.5968C113.949 30.4765 113.973 31.3086 113.997 32.117C114.021 32.9254 114.164 33.496 114.401 33.8288C114.758 34.3281 115.33 34.7323 116.115 34.9938C116.9 35.2554 117.59 35.4218 118.233 35.4931V35.9449H104.621V35.8735Z" fill="#9392A0"/>
<path d="M173.677 4.77512C173.011 5.20308 172.487 5.84503 172.131 6.70095C171.916 7.15268 171.797 7.98483 171.726 9.19738C171.655 10.4099 171.607 11.7176 171.536 13.0966C171.488 14.3804 171.417 15.9021 171.369 17.6615C171.321 19.4209 171.298 21.2991 171.298 23.3201C171.298 24.1522 171.298 25.127 171.298 26.1969C171.298 27.243 171.298 28.3129 171.321 29.4066C171.345 30.5003 171.345 31.5939 171.345 32.6638C171.345 33.7337 171.345 34.7086 171.345 35.5883C171.345 35.7071 171.298 35.8022 171.226 35.8736C171.155 35.9449 171.036 35.9924 170.893 35.9924C170.655 35.9924 170.393 35.8498 170.084 35.5407C167.538 32.5925 165.206 29.9059 163.112 27.4332C161.018 24.9843 159.019 22.6306 157.115 20.3957C155.212 18.1608 153.355 15.9734 151.523 13.8574C149.691 11.7176 147.763 9.53024 145.717 7.24779V26.2444C145.717 27.7661 145.765 29.1451 145.836 30.3814C145.907 31.6177 146.098 32.5212 146.407 33.1156C146.74 33.8051 147.24 34.3281 147.954 34.661C148.668 34.9939 149.62 35.2554 150.857 35.398V35.8498H139.816V35.398C140.529 35.3029 141.243 35.1127 141.981 34.8274C142.695 34.5421 143.266 34.0666 143.694 33.4009C144.123 32.759 144.384 31.8317 144.503 30.6192C144.622 29.3828 144.718 27.9087 144.765 26.1969C144.813 24.913 144.86 23.3914 144.908 21.632C144.932 19.8726 144.955 17.9943 144.955 15.9734C144.955 15.0937 144.955 14.3804 144.955 13.8098C144.955 13.2392 144.955 12.6924 144.955 12.1455C144.955 11.5987 144.955 11.0519 144.955 10.4813C144.955 9.88687 144.932 9.14983 144.908 8.27013C144.813 7.39044 144.599 6.67717 144.265 6.13033C143.932 5.5835 143.552 5.13176 143.099 4.82268C142.647 4.5136 142.171 4.27584 141.648 4.15697C141.124 4.01431 140.625 3.91921 140.149 3.87166V3.41992H149.263L170.56 28.3605V13.049C170.56 11.8602 170.536 10.6952 170.512 9.60157C170.489 8.50789 170.346 7.65197 170.108 7.01003C169.799 6.17789 169.275 5.4884 168.514 4.96533C167.752 4.44227 166.657 4.06186 165.206 3.87166V3.41992H176.342V3.87166C175.224 4.08564 174.344 4.37094 173.677 4.77512Z" fill="#9392A0"/>
<path d="M15.7909 8.60288C15.6005 8.98329 10.7699 20.7284 10.0322 22.5116H21.2164C20.7167 21.1564 16.0526 9.26859 15.7909 8.60288ZM21.6685 35.8734V35.4217C21.7637 35.4217 21.9778 35.3979 22.311 35.3266C22.6441 35.2553 23.0249 35.1602 23.3818 35.0175C23.7625 34.8749 24.0957 34.6609 24.3574 34.3756C24.643 34.114 24.7858 33.7574 24.7858 33.3532C24.7858 33.0917 24.6906 32.64 24.524 32.0218C24.3574 31.4036 24.1195 30.6666 23.8339 29.7631C23.5246 28.8834 22.0016 24.6038 21.5495 23.4388H9.62772C9.17559 24.58 7.48608 28.7883 7.05775 29.8344C6.43905 31.4512 6.10591 32.5924 6.10591 33.2581C6.10591 33.6385 6.22489 33.9714 6.46285 34.2329C6.70081 34.4945 7.01016 34.7084 7.39089 34.8749C7.77163 35.0413 8.17616 35.1602 8.60449 35.2315C9.03282 35.3028 9.46115 35.3741 9.84188 35.4455V35.8972H0.299683V35.3979C1.08495 35.3028 1.75124 35.0888 2.29855 34.7798C2.84586 34.4469 3.179 34.2329 3.27418 34.114C3.48835 33.9001 3.82149 33.4008 4.29741 32.64C4.77333 31.8554 5.36823 30.7141 6.05832 29.1687C6.67701 27.766 14.6011 9.29237 15.315 7.60431L18.3371 0.542969C19.2651 3.0394 29.2594 29.8582 29.545 30.4764C29.9019 31.261 30.0685 31.784 30.5206 32.5686C30.592 32.6875 30.711 32.9015 30.9251 33.1868C31.1393 33.4959 31.4249 33.805 31.758 34.114C32.0911 34.4231 32.5195 34.7084 33.043 34.9462C33.5427 35.1839 34.1614 35.3266 34.8277 35.3504V35.8972H21.6685V35.8734Z" fill="#9392A0"/>
<path d="M206.04 8.60288C205.85 8.98329 200.996 20.7284 200.282 22.5116H211.466C210.966 21.1564 206.302 9.26859 206.04 8.60288ZM211.918 35.8734V35.4217C212.013 35.4217 212.227 35.3979 212.56 35.3266C212.894 35.2553 213.274 35.1602 213.631 35.0175C214.012 34.8749 214.321 34.6609 214.631 34.3756C214.916 34.114 215.059 33.7574 215.059 33.3532C215.059 33.0917 214.988 32.64 214.821 32.0218C214.654 31.4036 214.416 30.6666 214.131 29.7631C213.822 28.8834 212.299 24.6038 211.846 23.4388H199.901C199.449 24.58 197.759 28.7883 197.331 29.8344C196.712 31.4512 196.379 32.5924 196.379 33.2581C196.379 33.6385 196.498 33.9714 196.736 34.2329C196.974 34.4945 197.283 34.7084 197.664 34.8749C198.045 35.0413 198.449 35.1602 198.878 35.2315C199.306 35.3028 199.734 35.3741 200.115 35.4455V35.8972H190.549V35.3979C191.334 35.3028 192.001 35.0888 192.548 34.7798C193.095 34.4469 193.428 34.2329 193.524 34.114C193.738 33.9001 194.071 33.4008 194.547 32.64C195.023 31.8554 195.618 30.7141 196.308 29.1687C196.926 27.766 204.85 9.29237 205.564 7.60431L208.586 0.542969C209.514 3.0394 219.509 29.8582 219.794 30.4764C220.151 31.261 220.318 31.784 220.77 32.5686C220.841 32.6875 220.96 32.9015 221.175 33.1868C221.389 33.4959 221.65 33.805 222.007 34.114C222.341 34.4231 222.769 34.7084 223.292 34.9462C223.792 35.1839 224.411 35.3266 225.101 35.3504V35.8972H211.918V35.8734Z" fill="#9392A0"/>
<path d="M34.2328 58.9199C34.4232 58.9199 34.6136 58.8961 34.804 58.8486C34.9943 58.801 35.1609 58.7059 35.3037 58.6108C35.4464 58.4919 35.5654 58.3731 35.6606 58.2304C35.7558 58.0878 35.8034 57.8975 35.8034 57.7073C35.8034 57.4696 35.732 57.2556 35.613 57.0654C35.494 56.8752 35.3275 56.7088 35.1371 56.5423C34.9467 56.3759 34.7088 56.2333 34.447 56.1144C34.1853 55.9717 33.9235 55.8291 33.6617 55.7102C33.4 55.5675 33.1382 55.4249 32.8765 55.2822C32.6147 55.1396 32.4006 54.9731 32.1864 54.7829C31.996 54.5927 31.8295 54.3788 31.7105 54.1648C31.5915 53.927 31.5201 53.6655 31.5201 53.3802C31.5201 53.0711 31.5677 52.8096 31.6867 52.548C31.8057 52.2865 31.9722 52.0725 32.1864 51.8823C32.4006 51.6921 32.6623 51.5495 32.9717 51.4306C33.281 51.3117 33.6617 51.2642 34.0663 51.2642C34.804 51.2642 35.3989 51.4306 35.8034 51.7397C36.2317 52.0488 36.5411 52.5005 36.7314 53.0949L36.0651 53.404C35.9938 53.1662 35.8748 52.9522 35.7558 52.7382C35.6368 52.548 35.494 52.3578 35.3275 52.239C35.1609 52.0963 34.9705 51.9774 34.7326 51.9061C34.5184 51.8348 34.2566 51.7872 33.9949 51.7872C33.7569 51.7872 33.5428 51.8348 33.3524 51.8823C33.162 51.9536 33.0193 52.0488 32.9003 52.1439C32.7813 52.2627 32.6861 52.3816 32.6147 52.5243C32.5433 52.6669 32.5195 52.8096 32.5195 52.9522C32.5195 53.1662 32.5909 53.3564 32.7099 53.5228C32.8289 53.6893 32.9955 53.8557 33.2096 53.9984C33.4238 54.141 33.6617 54.3074 33.9235 54.4263C34.1853 54.569 34.447 54.7116 34.7326 54.8543C35.0181 54.9969 35.2799 55.1634 35.5416 55.306C35.8034 55.4724 36.0413 55.6389 36.2555 55.8291C36.4697 56.0193 36.6362 56.2095 36.7552 56.4472C36.8742 56.6612 36.9456 56.9228 36.9456 57.1843C36.9456 57.4934 36.898 57.7787 36.779 58.064C36.66 58.3255 36.4935 58.5633 36.2555 58.7772C36.0175 58.9912 35.732 59.1339 35.3751 59.2528C35.0181 59.3716 34.6136 59.4192 34.1615 59.4192C33.7807 59.4192 33.4476 59.3716 33.162 59.3003C32.8765 59.229 32.6147 59.1101 32.3768 58.9437C32.1388 58.7772 31.9484 58.587 31.8057 58.3731C31.6391 58.1353 31.5201 57.8975 31.4011 57.5885L32.115 57.3032C32.1864 57.5647 32.3054 57.7787 32.4481 57.9926C32.5909 58.1829 32.7575 58.3731 32.9241 58.5157C33.1144 58.6584 33.3048 58.7535 33.5428 58.8486C33.7331 58.8961 33.9711 58.9199 34.2328 58.9199Z" fill="#9392A0"/>
<path d="M50.7233 51.4307V51.9299H47.8916V59.2528H46.5828V51.9299H43.7511V51.4307H50.7233Z" fill="#9392A0"/>
<path d="M58.3147 58.1831C58.4099 58.1831 58.4813 58.2069 58.5765 58.2307C58.6479 58.2544 58.7193 58.302 58.7669 58.3733C58.8144 58.4209 58.862 58.4922 58.9096 58.5635C58.9334 58.6348 58.9572 58.7062 58.9572 58.8013C58.9572 58.8964 58.9334 58.9677 58.9096 59.039C58.8858 59.1104 58.8382 59.1817 58.7669 59.2292C58.7193 59.2768 58.6479 59.3243 58.5765 59.3719C58.5051 59.3957 58.4099 59.4194 58.3147 59.4194C58.2195 59.4194 58.1482 59.3957 58.053 59.3719C57.9816 59.3481 57.9102 59.3006 57.8388 59.2292C57.7912 59.1817 57.7436 59.1104 57.696 59.039C57.6722 58.9677 57.6484 58.8726 57.6484 58.8013C57.6484 58.7062 57.6722 58.6348 57.696 58.5635C57.7198 58.4922 57.7674 58.4209 57.8388 58.3733C57.8864 58.3258 57.9578 58.2782 58.053 58.2307C58.1482 58.2069 58.2195 58.1831 58.3147 58.1831Z" fill="#9392A0"/>
<path d="M67.9755 55.1872C68.1183 55.2347 68.2849 55.2585 68.4514 55.3061C68.618 55.3298 68.7846 55.3536 68.975 55.3536C69.2605 55.3536 69.4985 55.3061 69.7126 55.2347C69.9268 55.1396 70.0934 55.0445 70.2361 54.8781C70.3789 54.7355 70.4741 54.569 70.5455 54.355C70.6169 54.1648 70.6407 53.9509 70.6407 53.7369C70.6407 53.4754 70.5931 53.2376 70.4979 53.0236C70.4027 52.8096 70.2837 52.6194 70.1172 52.4768C69.9506 52.3341 69.784 52.2152 69.5699 52.1201C69.3557 52.0488 69.1177 52.0013 68.8798 52.0013H67.9517V55.1872H67.9755ZM66.6667 51.4307H69.1177C69.5223 51.4307 69.903 51.4782 70.2599 51.5733C70.6169 51.6684 70.9262 51.8111 71.188 52.0013C71.4497 52.1915 71.6639 52.4292 71.8067 52.7145C71.9495 52.9998 72.0446 53.3089 72.0446 53.6656C72.0446 54.0222 71.9733 54.3313 71.8305 54.5928C71.6877 54.8543 71.4973 55.0683 71.2594 55.2585C71.0214 55.4249 70.7359 55.5676 70.4265 55.6389C70.1172 55.734 69.8078 55.7578 69.4985 55.7578C69.3557 55.7578 69.2129 55.7578 69.0701 55.734C68.9274 55.734 68.7846 55.7103 68.6418 55.7103C68.499 55.6865 68.3801 55.6865 68.2611 55.6627C68.1421 55.6389 68.0469 55.6389 67.9755 55.6151V59.229H66.6667V51.4307Z" fill="#9392A0"/>
<path d="M84.7042 51.4307V51.9299H80.6113V54.7117H83.3478V55.2347H80.6113V58.7297H84.7042V59.2528H79.3025V51.4307H84.7042Z" fill="#9392A0"/>
<path d="M98.4582 51.4307V51.9299H95.6503V59.2528H94.3177V51.9299H91.5098V51.4307H98.4582Z" fill="#9392A0"/>
<path d="M111.189 51.4307V51.9299H107.072V54.7117H109.809V55.2347H107.072V58.7297H111.189V59.2528H105.764V51.4307H111.189Z" fill="#9392A0"/>
<path d="M120.041 55.1634H120.803C121.088 55.1634 121.374 55.1159 121.612 55.0445C121.873 54.9732 122.088 54.8543 122.254 54.7117C122.444 54.569 122.587 54.4026 122.682 54.1886C122.778 53.9746 122.849 53.7607 122.849 53.4991C122.849 53.2614 122.801 53.0474 122.73 52.8572C122.659 52.667 122.54 52.5006 122.397 52.3579C122.254 52.2152 122.064 52.1202 121.873 52.0251C121.683 51.9537 121.445 51.9062 121.207 51.9062H120.041V55.1634ZM118.708 51.4307H121.421C121.897 51.4307 122.302 51.4782 122.659 51.5733C123.016 51.6684 123.301 51.8111 123.539 52.0013C123.777 52.1915 123.944 52.4055 124.063 52.6432C124.182 52.881 124.229 53.1663 124.229 53.4516C124.229 53.6893 124.182 53.9271 124.086 54.1411C123.991 54.355 123.872 54.5453 123.706 54.7117C123.539 54.8781 123.349 55.0208 123.111 55.1634C122.873 55.2823 122.611 55.3774 122.325 55.4487L125.157 59.229H123.634L120.922 55.5438H120.041V59.229H118.732V51.4307H118.708Z" fill="#9392A0"/>
<path d="M134.39 58.9199C134.581 58.9199 134.771 58.8961 134.961 58.8486C135.152 58.801 135.318 58.7059 135.461 58.6108C135.604 58.4919 135.723 58.3731 135.818 58.2304C135.913 58.0878 135.961 57.8975 135.961 57.7073C135.961 57.4696 135.889 57.2556 135.77 57.0654C135.652 56.8752 135.485 56.7088 135.295 56.5423C135.104 56.3759 134.866 56.2333 134.605 56.1144C134.343 55.9717 134.081 55.8291 133.819 55.7102C133.557 55.5675 133.296 55.4249 133.034 55.2822C132.772 55.1396 132.558 54.9731 132.344 54.7829C132.154 54.5927 131.987 54.3788 131.868 54.1648C131.749 53.927 131.678 53.6655 131.678 53.3802C131.678 53.0711 131.725 52.8096 131.844 52.548C131.963 52.2865 132.13 52.0725 132.344 51.8823C132.558 51.6921 132.82 51.5495 133.129 51.4306C133.438 51.3117 133.819 51.2642 134.224 51.2642C134.961 51.2642 135.556 51.4306 135.985 51.7397C136.413 52.0488 136.722 52.5005 136.913 53.0949L136.246 53.404C136.175 53.1662 136.08 52.9522 135.937 52.7382C135.818 52.548 135.675 52.3578 135.509 52.239C135.342 52.0963 135.152 51.9774 134.938 51.9061C134.723 51.8348 134.462 51.7872 134.2 51.7872C133.962 51.7872 133.724 51.8348 133.557 51.8823C133.367 51.9536 133.224 52.0488 133.105 52.1439C132.986 52.2627 132.891 52.3816 132.844 52.5243C132.772 52.6669 132.748 52.8096 132.748 52.9522C132.748 53.1662 132.82 53.3564 132.939 53.5228C133.058 53.6893 133.224 53.8557 133.438 53.9984C133.653 54.141 133.891 54.3074 134.152 54.4263C134.414 54.569 134.7 54.7116 134.961 54.8543C135.223 54.9969 135.509 55.1634 135.77 55.306C136.032 55.4724 136.27 55.6389 136.484 55.8291C136.699 56.0193 136.865 56.2095 136.984 56.4472C137.103 56.6612 137.174 56.9228 137.174 57.1843C137.174 57.4934 137.103 57.7787 137.008 58.064C136.889 58.3255 136.722 58.5633 136.484 58.7772C136.246 58.9912 135.961 59.1339 135.604 59.2528C135.247 59.3716 134.842 59.4192 134.39 59.4192C134.01 59.4192 133.676 59.3716 133.391 59.3003C133.105 59.229 132.844 59.1101 132.606 58.9437C132.368 58.7772 132.177 58.587 132.035 58.3731C131.868 58.1353 131.749 57.8975 131.63 57.5885L132.344 57.3032C132.415 57.5647 132.534 57.7787 132.677 57.9926C132.82 58.1829 132.986 58.3731 133.153 58.5157C133.343 58.6584 133.534 58.7535 133.772 58.8486C133.891 58.8961 134.129 58.9199 134.39 58.9199Z" fill="#9392A0"/>
<path d="M145.955 58.6822H147.383C147.764 58.6822 148.097 58.6347 148.382 58.5633C148.668 58.492 148.882 58.3969 149.073 58.2542C149.263 58.1354 149.382 57.9689 149.477 57.7787C149.572 57.5885 149.62 57.3983 149.62 57.1606C149.62 56.9228 149.572 56.6851 149.501 56.4711C149.429 56.2571 149.287 56.0669 149.12 55.9242C148.93 55.7816 148.716 55.6389 148.43 55.5676C148.144 55.4725 147.788 55.425 147.359 55.425H145.979V58.6822H145.955ZM145.955 54.9494H147.621C147.883 54.9494 148.121 54.9019 148.311 54.8306C148.525 54.7592 148.692 54.6641 148.835 54.5215C148.977 54.3788 149.073 54.2362 149.144 54.046C149.215 53.8558 149.263 53.6656 149.263 53.4516C149.263 53.2138 149.215 53.0236 149.144 52.8334C149.073 52.6432 148.93 52.5006 148.739 52.3579C148.549 52.2152 148.311 52.1201 148.049 52.0488C147.764 51.9775 147.431 51.9537 147.05 51.9537H145.979V54.9494H145.955ZM144.646 51.4307H147.788C148.192 51.4307 148.597 51.4782 148.93 51.5733C149.263 51.6684 149.572 51.7873 149.81 51.9775C150.072 52.1439 150.262 52.3579 150.381 52.5957C150.524 52.8334 150.595 53.095 150.595 53.3803C150.595 53.5942 150.572 53.7844 150.524 53.9509C150.476 54.1173 150.405 54.2837 150.286 54.4264C150.167 54.569 150.024 54.7117 149.858 54.8306C149.667 54.9494 149.453 55.0921 149.168 55.211V55.2348C149.453 55.2823 149.691 55.3536 149.929 55.4725C150.143 55.5676 150.358 55.7103 150.5 55.8767C150.667 56.0431 150.786 56.2333 150.857 56.4473C150.952 56.6613 150.976 56.899 150.976 57.1606C150.976 57.4459 150.905 57.7312 150.786 57.9927C150.643 58.2542 150.477 58.4682 150.239 58.6584C150.001 58.8486 149.715 58.9913 149.382 59.1102C149.049 59.229 148.668 59.2766 148.263 59.2766H144.623V51.4307H144.646Z" fill="#9392A0"/>
<path d="M158.234 51.431H159.543V56.4952C159.543 56.8281 159.591 57.1371 159.71 57.4225C159.829 57.7078 159.995 57.9693 160.209 58.1833C160.423 58.3972 160.685 58.5874 160.971 58.7063C161.28 58.8252 161.613 58.8965 161.97 58.8965C162.351 58.8965 162.684 58.8252 162.97 58.7063C163.279 58.5874 163.517 58.3972 163.731 58.1833C163.945 57.9693 164.088 57.7078 164.207 57.4225C164.326 57.1371 164.374 56.8043 164.374 56.4952V51.4072H164.945V56.4952C164.945 56.8994 164.873 57.2798 164.754 57.6364C164.635 57.9931 164.421 58.3021 164.136 58.5637C163.874 58.8252 163.517 59.0392 163.089 59.2056C162.66 59.3483 162.137 59.4434 161.542 59.4434C160.995 59.4434 160.519 59.372 160.114 59.2056C159.71 59.0392 159.353 58.8252 159.067 58.5637C158.782 58.3021 158.567 57.9693 158.425 57.6127C158.282 57.256 158.21 56.8756 158.21 56.4714V51.431H158.234Z" fill="#9392A0"/>
<path d="M174.177 55.1634H174.938C175.224 55.1634 175.509 55.1159 175.747 55.0445C175.985 54.9732 176.199 54.8543 176.39 54.7117C176.58 54.569 176.723 54.4026 176.818 54.1886C176.913 53.9746 176.961 53.7607 176.961 53.4991C176.961 53.2614 176.913 53.0474 176.842 52.8572C176.771 52.667 176.652 52.5006 176.509 52.3579C176.366 52.2152 176.199 52.1202 175.985 52.0251C175.771 51.9537 175.557 51.9062 175.319 51.9062H174.153V55.1634H174.177ZM172.868 51.4307H175.557C176.033 51.4307 176.437 51.4782 176.794 51.5733C177.151 51.6684 177.437 51.8111 177.675 52.0013C177.913 52.1915 178.079 52.4055 178.198 52.6432C178.317 52.881 178.389 53.1663 178.389 53.4516C178.389 53.6893 178.341 53.9271 178.246 54.1411C178.151 54.355 178.032 54.5453 177.865 54.7117C177.699 54.8781 177.484 55.0208 177.247 55.1634C177.009 55.2823 176.747 55.3774 176.461 55.4487L179.293 59.229H177.77L175.057 55.5438H174.129V59.229H172.868V51.4307Z" fill="#9392A0"/>
<path d="M190.834 51.8112C190.358 51.8112 189.93 51.9063 189.549 52.0727C189.145 52.2391 188.811 52.4769 188.526 52.786C188.24 53.095 188.002 53.4754 187.86 53.9034C187.693 54.3551 187.622 54.8307 187.622 55.4013C187.622 55.9481 187.717 56.4474 187.883 56.8991C188.05 57.3509 188.312 57.7075 188.597 58.0166C188.907 58.3257 189.264 58.5634 189.668 58.7298C190.073 58.8963 190.525 58.9914 191.001 58.9914C191.334 58.9914 191.643 58.9438 191.929 58.8487C192.214 58.7536 192.452 58.611 192.666 58.4445V55.6866H191.191V55.2111H193.975V58.6585C193.761 58.7774 193.523 58.8963 193.285 58.9914C193.047 59.0865 192.809 59.1578 192.547 59.2291C192.286 59.3005 191.976 59.348 191.667 59.3718C191.334 59.3955 190.977 59.4193 190.572 59.4193C190.144 59.4193 189.74 59.3718 189.335 59.2767C188.954 59.1816 188.574 59.0389 188.24 58.8725C187.907 58.7061 187.622 58.4921 187.336 58.2306C187.074 57.9928 186.836 57.7075 186.646 57.4222C186.456 57.1131 186.313 56.804 186.218 56.4712C186.123 56.1383 186.075 55.7817 186.075 55.4013C186.075 55.0209 186.123 54.6642 186.218 54.3314C186.313 53.9747 186.456 53.6656 186.622 53.3566C186.813 53.0475 187.027 52.7622 187.289 52.5244C187.55 52.2629 187.836 52.0489 188.169 51.8587C188.502 51.6685 188.859 51.5259 189.24 51.4307C189.621 51.3356 190.025 51.2881 190.453 51.2881C190.858 51.2881 191.262 51.3356 191.596 51.4545C191.953 51.5734 192.262 51.7161 192.547 51.9063C192.833 52.0965 193.095 52.3104 193.309 52.5482C193.523 52.786 193.737 53.0475 193.88 53.309L193.333 53.6419C193 52.9999 192.643 52.5482 192.238 52.2391C191.834 51.9538 191.358 51.8112 190.834 51.8112Z" fill="#9392A0"/>
</g>
<defs>
<clipPath id="clip0_2_3567">
<rect width="224.801" height="60.2728" fill="white" transform="translate(0.299683)"/>
</clipPath>
</defs>
</svg>
