<svg width="226" height="61" viewBox="0 0 226 61" fill="none" xmlns="http://www.w3.org/2000/svg">
<g clip-path="url(#clip0_2_3433)">
<path d="M29.3801 35.8108H31.6775C35.2011 35.8108 42.1919 32.6532 42.1919 20.2775C42.1919 7.90181 35.5112 6.00439 32.4457 6.00439H0.599365V53.7442H10.2399V27.0742L30.2822 53.723H42.9671L29.3801 35.8108ZM10.2117 25.9627V15.8526H28.1751C30.3667 15.8526 31.2406 16.7375 31.2406 20.8085C31.2406 24.8794 29.9298 25.9839 28.0623 25.9839L10.2117 25.9627Z" fill="#9392A0"/>
<path d="M74.1786 34.3196H56.6311V43.8846H74.1082C76.3351 43.8846 78.3365 42.9925 78.3365 38.9287C78.3647 35.3887 76.0039 34.4896 74.1786 34.3196ZM75.7713 6C78.5902 6 84.6367 7.52926 84.6367 19.9049C84.6735 22.1201 84.4127 24.33 83.8615 26.4751C86.7508 28.5991 89.1821 32.6063 89.1821 39.8349C89.1821 52.2106 79.7248 53.7398 76.6029 53.7398H46.8003V6H75.7784H75.7713ZM73.185 24.4573C74.235 24.337 74.9679 23.7493 74.9679 20.7899C74.9679 16.7473 73.9743 15.834 71.9799 15.834H56.617V24.4573H73.185Z" fill="#9392A0"/>
<path d="M118.365 53.7413H104.898C99.5136 53.7413 95.8138 48.6862 94.5806 44.2684C93.4107 40.0771 93.0654 32.3741 93.0302 29.4006C92.9879 26.0093 93.5164 19.2621 94.5806 15.4461C95.8138 11.0282 99.5136 5.97314 104.898 5.97314H130.465V15.8496H108.372C105.123 15.8496 103.326 18.7524 103.326 24.9402V34.7955C103.326 40.9833 105.116 43.8861 108.372 43.8861H121.015C125.645 43.7445 126.54 42.0453 126.652 39.0505H119.492V29.1953H135.412V42.1302C135.398 44.6272 134.606 47.057 133.146 49.0776C131.686 51.0983 129.631 52.608 127.273 53.3944C125.793 53.9183 118.365 53.7413 118.365 53.7413Z" fill="#9392A0"/>
<rect x="146" y="5.97314" width="2.8233" height="47.9961" fill="#9392A0"/>
<path d="M164.753 16.9837L162.669 13.9736H160.369V16.9837H157.868V6.17822H162.545C163.502 6.17822 164.331 6.33773 165.031 6.65675C165.741 6.97577 166.286 7.42857 166.667 8.01515C167.048 8.60174 167.238 9.29638 167.238 10.0991C167.238 10.9018 167.043 11.5964 166.651 12.183C166.271 12.7593 165.725 13.2018 165.015 13.5105L167.439 16.9837H164.753ZM164.706 10.0991C164.706 9.4919 164.511 9.02881 164.12 8.70979C163.729 8.38048 163.158 8.21583 162.406 8.21583H160.369V11.9823H162.406C163.158 11.9823 163.729 11.8177 164.12 11.4883C164.511 11.159 164.706 10.6959 164.706 10.0991Z" fill="#9392A0"/>
<path d="M177.586 14.977V16.9837H169.219V6.17822H177.385V8.18496H171.705V10.5313H176.721V12.4763H171.705V14.977H177.586Z" fill="#9392A0"/>
<path d="M186.692 14.6682H181.675L180.718 16.9837H178.155L182.972 6.17822H185.441L190.273 16.9837H187.649L186.692 14.6682ZM185.905 12.7696L184.191 8.63261L182.478 12.7696H185.905Z" fill="#9392A0"/>
<path d="M191.394 6.17822H193.895V14.9461H199.313V16.9837H191.394V6.17822Z" fill="#9392A0"/>
<path d="M201.938 8.21583H198.481V6.17822H207.897V8.21583H204.439V16.9837H201.938V8.21583Z" fill="#9392A0"/>
<path d="M214.233 13.1555V16.9837H211.732V13.1246L207.549 6.17822H210.204L213.091 10.9789L215.977 6.17822H218.432L214.233 13.1555Z" fill="#9392A0"/>
<path d="M165.802 29.7163C166.42 29.9118 166.904 30.2412 167.253 30.7042C167.603 31.157 167.778 31.7179 167.778 32.3868C167.778 33.3336 167.408 34.0642 166.667 34.5788C165.936 35.083 164.866 35.3352 163.456 35.3352H157.868V24.5297H163.147C164.465 24.5297 165.473 24.7818 166.173 25.2861C166.883 25.7903 167.238 26.4747 167.238 27.3391C167.238 27.8639 167.109 28.3322 166.852 28.7438C166.605 29.1555 166.255 29.4796 165.802 29.7163ZM160.353 26.4129V28.9599H162.839C163.456 28.9599 163.924 28.8519 164.243 28.6358C164.562 28.4197 164.722 28.1006 164.722 27.6787C164.722 27.2568 164.562 26.9429 164.243 26.7371C163.924 26.521 163.456 26.4129 162.839 26.4129H160.353ZM163.271 33.4519C163.93 33.4519 164.423 33.3439 164.753 33.1278C165.092 32.9117 165.262 32.5772 165.262 32.1244C165.262 31.2291 164.598 30.7814 163.271 30.7814H160.353V33.4519H163.271Z" fill="#9392A0"/>
<path d="M176.556 35.3352L174.472 32.3251H172.172V35.3352H169.672V24.5297H174.349C175.306 24.5297 176.134 24.6892 176.834 25.0082C177.544 25.3272 178.09 25.78 178.47 26.3666C178.851 26.9532 179.041 27.6478 179.041 28.4505C179.041 29.2532 178.846 29.9479 178.455 30.5344C178.074 31.1107 177.529 31.5532 176.819 31.862L179.242 35.3352H176.556ZM176.51 28.4505C176.51 27.8434 176.314 27.3803 175.923 27.0613C175.532 26.7319 174.961 26.5673 174.21 26.5673H172.172V30.3338H174.21C174.961 30.3338 175.532 30.1691 175.923 29.8398C176.314 29.5105 176.51 29.0474 176.51 28.4505Z" fill="#9392A0"/>
<path d="M186.256 35.5204C185.134 35.5204 184.12 35.2786 183.215 34.7949C182.319 34.3112 181.614 33.6475 181.1 32.8036C180.596 31.9494 180.344 30.9924 180.344 29.9324C180.344 28.8725 180.596 27.9205 181.1 27.0767C181.614 26.2225 182.319 25.5536 183.215 25.07C184.12 24.5863 185.134 24.3444 186.256 24.3444C187.377 24.3444 188.386 24.5863 189.281 25.07C190.177 25.5536 190.881 26.2225 191.396 27.0767C191.911 27.9205 192.168 28.8725 192.168 29.9324C192.168 30.9924 191.911 31.9494 191.396 32.8036C190.881 33.6475 190.177 34.3112 189.281 34.7949C188.386 35.2786 187.377 35.5204 186.256 35.5204ZM186.256 33.3902C186.894 33.3902 187.47 33.2461 187.985 32.958C188.499 32.6595 188.9 32.2479 189.189 31.723C189.487 31.1982 189.636 30.6013 189.636 29.9324C189.636 29.2635 189.487 28.6666 189.189 28.1418C188.9 27.617 188.499 27.2105 187.985 26.9223C187.47 26.6239 186.894 26.4747 186.256 26.4747C185.618 26.4747 185.041 26.6239 184.527 26.9223C184.012 27.2105 183.606 27.617 183.307 28.1418C183.019 28.6666 182.875 29.2635 182.875 29.9324C182.875 30.6013 183.019 31.1982 183.307 31.723C183.606 32.2479 184.012 32.6595 184.527 32.958C185.041 33.2461 185.618 33.3902 186.256 33.3902Z" fill="#9392A0"/>
<path d="M197.984 31.0902L196.532 32.6029V35.3352H194.047V24.5297H196.532V29.5774L201.318 24.5297H204.096L199.62 29.3458L204.359 35.3352H201.441L197.984 31.0902Z" fill="#9392A0"/>
<path d="M213.84 33.3284V35.3352H205.474V24.5297H213.64V26.5364H207.959V28.8827H212.976V30.8277H207.959V33.3284H213.84Z" fill="#9392A0"/>
<path d="M222.715 35.3352L220.631 32.3251H218.331V35.3352H215.83V24.5297H220.507C221.464 24.5297 222.293 24.6892 222.993 25.0082C223.703 25.3272 224.248 25.78 224.629 26.3666C225.01 26.9532 225.2 27.6478 225.2 28.4505C225.2 29.2532 225.004 29.9479 224.613 30.5344C224.233 31.1107 223.687 31.5532 222.977 31.862L225.401 35.3352H222.715ZM222.668 28.4505C222.668 27.8434 222.473 27.3803 222.082 27.0613C221.691 26.7319 221.12 26.5673 220.368 26.5673H218.331V30.3338H220.368C221.12 30.3338 221.691 30.1691 222.082 29.8398C222.473 29.5105 222.668 29.0474 222.668 28.4505Z" fill="#9392A0"/>
<path d="M165.17 48.8199H167.454V53.2038C166.868 53.6464 166.188 53.986 165.417 54.2227C164.645 54.4593 163.868 54.5777 163.086 54.5777C161.964 54.5777 160.955 54.341 160.06 53.8676C159.165 53.3839 158.46 52.7202 157.945 51.8763C157.441 51.0222 157.189 50.06 157.189 48.9897C157.189 47.9195 157.441 46.9624 157.945 46.1185C158.46 45.2644 159.17 44.6006 160.076 44.1272C160.981 43.6436 162 43.4017 163.132 43.4017C164.079 43.4017 164.938 43.5612 165.71 43.8803C166.482 44.1993 167.13 44.6624 167.655 45.2695L166.049 46.7514C165.278 45.9384 164.346 45.532 163.255 45.532C162.566 45.532 161.954 45.676 161.419 45.9642C160.883 46.2523 160.467 46.6588 160.168 47.1837C159.87 47.7085 159.721 48.3105 159.721 48.9897C159.721 49.6586 159.87 50.2555 160.168 50.7803C160.467 51.3052 160.878 51.7168 161.403 52.0153C161.938 52.3034 162.545 52.4475 163.225 52.4475C163.945 52.4475 164.593 52.2931 165.17 51.9844V48.8199Z" fill="#9392A0"/>
<path d="M176.662 54.3925L174.578 51.3824H172.278V54.3925H169.777V43.587H174.454C175.411 43.587 176.24 43.7465 176.94 44.0655C177.65 44.3845 178.195 44.8373 178.576 45.4239C178.957 46.0105 179.147 46.7051 179.147 47.5078C179.147 48.3105 178.951 49.0051 178.56 49.5917C178.18 50.168 177.634 50.6105 176.924 50.9193L179.348 54.3925H176.662ZM176.615 47.5078C176.615 46.9007 176.42 46.4376 176.029 46.1185C175.638 45.7892 175.067 45.6246 174.315 45.6246H172.278V49.3911H174.315C175.067 49.3911 175.638 49.2264 176.029 48.8971C176.42 48.5678 176.615 48.1047 176.615 47.5078Z" fill="#9392A0"/>
<path d="M186.361 54.5777C185.24 54.5777 184.226 54.3359 183.32 53.8522C182.425 53.3685 181.72 52.7047 181.205 51.8609C180.701 51.0067 180.449 50.0497 180.449 48.9897C180.449 47.9297 180.701 46.9778 181.205 46.134C181.72 45.2798 182.425 44.6109 183.32 44.1272C184.226 43.6436 185.24 43.4017 186.361 43.4017C187.483 43.4017 188.491 43.6436 189.387 44.1272C190.282 44.6109 190.987 45.2798 191.502 46.134C192.016 46.9778 192.273 47.9297 192.273 48.9897C192.273 50.0497 192.016 51.0067 191.502 51.8609C190.987 52.7047 190.282 53.3685 189.387 53.8522C188.491 54.3359 187.483 54.5777 186.361 54.5777ZM186.361 52.4475C186.999 52.4475 187.576 52.3034 188.09 52.0153C188.605 51.7168 189.006 51.3052 189.294 50.7803C189.593 50.2555 189.742 49.6586 189.742 48.9897C189.742 48.3208 189.593 47.7239 189.294 47.1991C189.006 46.6743 188.605 46.2678 188.09 45.9796C187.576 45.6812 186.999 45.532 186.361 45.532C185.723 45.532 185.147 45.6812 184.632 45.9796C184.118 46.2678 183.711 46.6743 183.413 47.1991C183.125 47.7239 182.981 48.3208 182.981 48.9897C182.981 49.6586 183.125 50.2555 183.413 50.7803C183.711 51.3052 184.118 51.7168 184.632 52.0153C185.147 52.3034 185.723 52.4475 186.361 52.4475Z" fill="#9392A0"/>
<path d="M198.953 54.5777C197.41 54.5777 196.206 54.1506 195.341 53.2965C194.487 52.4423 194.06 51.2228 194.06 49.638V43.587H196.561V49.5454C196.561 51.4801 197.364 52.4475 198.969 52.4475C199.751 52.4475 200.348 52.2159 200.76 51.7528C201.171 51.2794 201.377 50.5436 201.377 49.5454V43.587H203.847V49.638C203.847 51.2228 203.415 52.4423 202.55 53.2965C201.696 54.1506 200.497 54.5777 198.953 54.5777Z" fill="#9392A0"/>
<path d="M210.995 43.587C211.952 43.587 212.781 43.7465 213.48 44.0655C214.191 44.3845 214.736 44.8373 215.117 45.4239C215.497 46.0105 215.688 46.7051 215.688 47.5078C215.688 48.3002 215.497 48.9949 215.117 49.5917C214.736 50.1783 214.191 50.6311 213.48 50.9501C212.781 51.2589 211.952 51.4132 210.995 51.4132H208.819V54.3925H206.318V43.587H210.995ZM210.856 49.3756C211.608 49.3756 212.179 49.2161 212.57 48.8971C212.961 48.5678 213.156 48.1047 213.156 47.5078C213.156 46.9007 212.961 46.4376 212.57 46.1185C212.179 45.7892 211.608 45.6246 210.856 45.6246H208.819V49.3756H210.856Z" fill="#9392A0"/>
</g>
<defs>
<clipPath id="clip0_2_3433">
<rect width="224.801" height="60.2728" fill="white" transform="translate(0.599365)"/>
</clipPath>
</defs>
</svg>
