<svg width="226" height="61" viewBox="0 0 226 61" fill="none" xmlns="http://www.w3.org/2000/svg">
<g clip-path="url(#clip0_2_3595)">
<path fill-rule="evenodd" clip-rule="evenodd" d="M54.2649 34.3514C54.2783 36.247 53.7022 38.1039 52.6094 39.6872C51.5165 41.2705 49.956 42.5091 48.1253 43.2464C46.2945 43.9836 44.2756 44.1865 42.324 43.8293C40.3724 43.472 38.5756 42.5708 37.1609 41.2394C35.7462 39.9081 34.7772 38.2065 34.3763 36.3498C33.9754 34.4931 34.1606 32.5647 34.9086 30.8084C35.6566 29.0521 36.9338 27.5469 38.5785 26.483C40.2233 25.4192 42.1619 24.8444 44.1491 24.8315H44.2172C46.8703 24.8315 49.4157 25.8324 51.298 27.6159C53.1804 29.3993 54.2469 31.8206 54.2649 34.3514Z" fill="#9392A0"/>
<path fill-rule="evenodd" clip-rule="evenodd" d="M13.8874 52.4535C9.59873 52.517 5.3109 52.2817 1.05812 51.7496L0.89917 40.9518L5.91736 39.977C6.57969 42.6788 7.42154 45.3376 8.43781 47.9373C9.71469 48.9822 11.3031 49.6186 12.9792 49.7568C14.0928 49.8409 15.2124 49.6931 16.2603 49.3236C16.7526 49.105 17.2049 48.8125 17.6 48.4572C18.1343 47.7579 18.494 46.9513 18.6514 46.0991C18.8088 45.2469 18.7599 44.3716 18.5082 43.5402C18.3235 43.1565 18.095 42.7933 17.827 42.4572C15.159 39.8471 10.7539 39.4897 7.43871 37.9084C5.74534 37.0852 4.30918 35.8509 3.27477 34.3299C2.24036 32.8089 1.64421 31.0548 1.54631 29.2442C1.40234 27.2626 1.79322 25.2789 2.68165 23.4825C4.205 21.1658 6.56283 19.4597 9.31202 18.6846C12.3774 17.8074 15.4996 18.1539 18.6445 18.3922L25.1159 18.8579L26.1831 28.4536L21.0855 29.4283C20.2274 26.7901 19.2308 24.1948 18.0995 21.6521C17.1974 21.1722 16.1888 20.9032 15.1566 20.8675C14.1243 20.8317 13.0979 21.0301 12.1617 21.4464C11.1824 22.0686 10.5012 23.0354 10.2671 24.1355C10.0331 25.2355 10.2653 26.3792 10.9128 27.3164C11.1426 27.6491 11.4218 27.9483 11.7416 28.2045C14.4324 30.2297 18.2698 30.533 21.3352 31.9734C22.8916 32.6604 24.2489 33.699 25.2895 34.9993C26.3301 36.2996 27.0226 37.8223 27.3071 39.4355C27.6029 41.0506 27.5266 42.7077 27.0835 44.2918C26.6404 45.8759 25.8412 47.349 24.7412 48.6088C22.0391 51.468 17.8157 52.551 13.8874 52.551V52.4535Z" fill="#9392A0"/>
<path fill-rule="evenodd" clip-rule="evenodd" d="M80.9068 50.0042C76.479 52.4085 68.7587 54.3363 65.0121 49.8526C63.4439 47.7601 62.6746 45.2182 62.8322 42.6504V22.2244H57.5643V17.9789C59.6533 17.5999 61.5834 17.4266 63.3772 16.0945C66.1361 14.0584 66.9308 11.2966 67.771 8.14502H72.8005V17.9789H81.9627V21.9862H72.88V44.524C73.5044 46.1378 74.1402 47.2858 76.0816 47.5349C77.7236 47.7507 79.3955 47.6138 80.9749 47.1341V49.95L80.9068 50.0042Z" fill="#9392A0"/>
<path fill-rule="evenodd" clip-rule="evenodd" d="M143.51 18.1326L144.384 27.8799L139.354 28.8871L137.22 23.0062C135.681 22.9058 134.143 23.2053 132.769 23.8726C131.41 24.6264 130.276 25.7004 129.477 26.9918V45.4033C129.404 45.9378 129.447 46.4808 129.603 46.9988C129.759 47.5167 130.025 47.9985 130.385 48.4141C131.52 49.4972 133.553 49.4972 135.017 49.6813V52.0856H115.569V49.6813C117.647 49.2264 119.588 49.3022 119.894 46.8654C120.11 44.9701 120.235 26.5802 119.747 24.869C119.505 23.9018 118.922 23.0434 118.095 22.438C117.268 21.8326 116.248 21.517 115.206 21.5441V19.0748L129.091 18.1867L129.545 18.7066V23.6019H129.658C131.036 21.4572 132.998 19.7093 135.335 18.5441C137.89 17.3636 140.773 17.9809 143.51 18.1326Z" fill="#9392A0"/>
<path fill-rule="evenodd" clip-rule="evenodd" d="M175.937 18.1325L176.8 27.8798L171.771 28.887L169.636 23.0062C168.094 22.9054 166.553 23.2048 165.174 23.8726C163.821 24.6297 162.692 25.7031 161.893 26.9917V45.4033C161.824 45.9392 161.871 46.483 162.031 47.0009C162.191 47.5188 162.461 47.9998 162.824 48.4141C163.96 49.4971 165.981 49.4971 167.445 49.6812V52.0856H147.974V49.6812C150.029 49.2264 151.993 49.3022 152.277 46.8654C152.515 44.97 152.629 26.5802 152.141 24.869C151.899 23.9017 151.315 23.0434 150.489 22.438C149.662 21.8325 148.642 21.5169 147.599 21.5441V19.0747L161.485 18.1867L161.927 18.7065V23.6018H162.041C163.42 21.4579 165.381 19.7101 167.718 18.5441C170.352 17.3636 173.19 17.9809 175.937 18.1325Z" fill="#9392A0"/>
<path fill-rule="evenodd" clip-rule="evenodd" d="M113.006 43.6185C111.524 46.4833 109.206 48.8789 106.33 50.5174C103.476 52.0689 100.188 52.7386 96.9185 52.4344C93.9022 52.2737 91.0041 51.2612 88.5924 49.5256C86.1807 47.79 84.3643 45.4097 83.374 42.6871C82.3023 39.8157 81.8866 36.7588 82.1549 33.7216C82.4232 30.6843 83.3691 27.7369 84.9294 25.077C88.1651 19.8785 94.0802 17.4958 100.29 18.0915C103.605 18.2873 106.706 19.7143 108.93 22.0662C111.12 24.6945 112.281 27.9693 112.212 31.3261V34.0229H92.5702C92.5702 37.6293 92.8994 42.0048 95.3858 44.9831C96.6799 46.3932 98.4402 47.339 100.375 47.664C102.31 47.989 104.303 47.6737 106.024 46.7701C108.048 45.6253 109.675 43.938 110.702 41.9182L112.972 43.6185H113.006ZM102.005 31.2828C102.005 31.2828 102.402 23.7557 99.7342 21.4272C97.0661 19.0987 93.8077 22.0554 93.1379 25.5319C92.7276 27.4309 92.526 29.3655 92.5361 31.3044L102.005 31.2828Z" fill="#9392A0"/>
<path fill-rule="evenodd" clip-rule="evenodd" d="M211.878 50.644C207.427 52.6368 198.992 53.8931 197.584 47.6982L197.402 47.5033C194.087 52.4527 185.402 54.5105 181.076 49.561C180.148 48.3395 179.529 46.9289 179.269 45.4405C179.009 43.952 179.114 42.4262 179.578 40.9834C180.52 37.6802 183.256 35.904 186.39 34.626C189.977 33.1747 193.928 32.3625 197.357 30.5755C197.357 28.0087 197.845 24.5755 196.392 22.2686C194.621 19.4419 191.101 20.8282 188.445 21.4455L185.186 29.1567L180.282 28.2361L181.11 18.6405C185.277 18.4022 189.523 17.904 193.667 17.904C197.073 17.904 201.035 18.1639 203.715 20.3841C206.394 22.6044 206.882 26.3841 206.882 29.7632C206.882 33.5105 206.769 37.2794 206.667 41.0376C206.667 42.8679 206.122 45.4672 207.257 47.0376C208.234 48.4238 210.175 48.2289 211.719 48.2289V50.6332L211.878 50.644ZM197.119 34.5502C193.781 35.7415 190.034 37.5719 189.171 41.135C188.615 43.5285 188.694 47.6332 191.964 48.1639C194.144 48.5105 195.722 47.2 196.982 45.6404L197.096 34.5502H197.119Z" fill="#9392A0"/>
<path d="M218.574 20.2642H217.438V15.3689C218.084 15.2718 218.737 15.2175 219.391 15.2064C220.008 15.1508 220.627 15.2918 221.151 15.6071C221.331 15.7275 221.475 15.8908 221.569 16.0808C221.663 16.2708 221.702 16.4809 221.684 16.6902C221.673 16.9822 221.556 17.2614 221.353 17.4805C221.15 17.6996 220.874 17.8451 220.572 17.8923C221.071 18.0331 221.321 18.423 221.48 19.0945C221.549 19.5091 221.675 19.9133 221.855 20.2967H220.595C220.39 19.9211 220.255 19.5143 220.197 19.0945C220.095 18.5855 219.777 18.3472 219.119 18.3472H218.562L218.574 20.2642ZM218.574 17.5133H219.119C219.788 17.5133 220.322 17.2967 220.322 16.7985C220.322 16.3003 219.981 16.0512 219.187 16.0512C218.969 16.0406 218.75 16.0625 218.54 16.1161L218.574 17.5133Z" fill="#9392A0"/>
<path d="M219.422 13.0222C220.414 13.0308 221.382 13.3194 222.203 13.8518C223.025 14.3842 223.662 15.1364 224.036 16.0138C224.41 16.8913 224.503 17.8545 224.304 18.7824C224.104 19.7102 223.622 20.561 222.917 21.2277C222.211 21.8943 221.315 22.347 220.341 22.5286C219.367 22.7103 218.358 22.6128 217.441 22.2484C216.525 21.884 215.742 21.2691 215.191 20.4811C214.641 19.693 214.347 18.7671 214.347 17.8201C214.345 17.1896 214.474 16.5651 214.726 15.9823C214.979 15.3996 215.349 14.8701 215.816 14.4243C216.284 13.9785 216.839 13.6252 217.45 13.3846C218.061 13.1439 218.715 13.0208 219.376 13.0222H219.422ZM219.376 11.8201C218.134 11.8265 216.921 12.1838 215.891 12.847C214.861 13.5102 214.06 14.4495 213.59 15.5464C213.119 16.6433 212.999 17.8487 213.246 19.0104C213.492 20.1721 214.094 21.2382 214.975 22.0741C215.856 22.9099 216.977 23.4782 218.196 23.7071C219.415 23.9359 220.678 23.8152 221.825 23.3602C222.972 22.9051 223.953 22.1361 224.642 21.1501C225.332 20.1641 225.7 19.0054 225.7 17.8201C225.702 17.0327 225.54 16.2527 225.225 15.5248C224.911 14.7969 224.448 14.1354 223.865 13.5781C223.282 13.0208 222.589 12.5787 221.827 12.277C221.064 11.9754 220.247 11.8201 219.422 11.8201H219.376Z" fill="#9392A0"/>
</g>
<defs>
<clipPath id="clip0_2_3595">
<rect width="224.801" height="60.2728" fill="white" transform="translate(0.89917)"/>
</clipPath>
</defs>
</svg>
