<svg width="225" height="61" viewBox="0 0 225 61" fill="none" xmlns="http://www.w3.org/2000/svg">
<path d="M31.8154 55.3036C31.8154 55.3549 31.8154 55.4061 31.8154 55.4061C31.8154 55.4574 31.8154 55.4574 31.8154 55.5086C31.8154 55.5086 31.8154 55.5599 31.7642 55.5599H31.7131H30.3828V59.7624V59.8136L30.3316 59.8649C30.3316 59.8649 30.2804 59.8649 30.2293 59.8649C30.1781 59.8649 30.127 59.8649 30.0758 59.8649C30.0246 59.8649 29.9735 59.8649 29.9223 59.8649C29.8711 59.8649 29.8711 59.8649 29.82 59.8649C29.82 59.8649 29.7688 59.8649 29.7688 59.8136V59.7624V55.5599H28.4385H28.3873C28.3873 55.5599 28.3362 55.5599 28.3362 55.5086C28.3362 55.5086 28.3362 55.4574 28.3362 55.4061C28.3362 55.3549 28.3362 55.3549 28.3362 55.3036C28.3362 55.2524 28.3362 55.2011 28.3362 55.2011C28.3362 55.1499 28.3362 55.1499 28.3362 55.0986C28.3362 55.0986 28.3362 55.0474 28.3873 55.0474H28.4385H31.7642H31.8154L31.8666 55.0986C31.8666 55.0986 31.8666 55.1499 31.8666 55.2011C31.8154 55.2524 31.8154 55.2524 31.8154 55.3036Z" fill="#9392A0"/>
<path d="M38.5179 56.4795C38.5179 56.7357 38.4667 56.9407 38.4155 57.1457C38.3132 57.3507 38.2109 57.5045 38.0574 57.6582C37.9039 57.812 37.7504 57.9145 37.4946 57.9657C37.2899 58.017 37.0341 58.0682 36.7271 58.0682H36.1643V59.8107V59.862L36.1131 59.9132C36.1131 59.9132 36.0619 59.9132 36.0108 59.9132C35.9596 59.9132 35.9084 59.9132 35.8573 59.9132C35.8061 59.9132 35.755 59.9132 35.7038 59.9132C35.6526 59.9132 35.6526 59.9132 35.6015 59.9132C35.6015 59.9132 35.5503 59.9132 35.5503 59.862V59.8107V55.352C35.5503 55.2495 35.6015 55.1982 35.6526 55.147C35.7038 55.0957 35.755 55.0957 35.8061 55.0957H36.8294C36.9317 55.0957 37.0341 55.0957 37.1364 55.0957C37.2387 55.0957 37.3411 55.147 37.4946 55.147C37.6481 55.1982 37.7504 55.2495 37.9039 55.3007C38.0574 55.4032 38.1597 55.4545 38.262 55.6082C38.3644 55.7107 38.4155 55.8645 38.4667 56.0182C38.5179 56.1207 38.5179 56.2745 38.5179 56.4795ZM37.8527 56.5307C37.8527 56.3257 37.8015 56.172 37.7504 56.0182C37.6992 55.8645 37.5969 55.8132 37.4946 55.7107C37.3922 55.6595 37.2899 55.6082 37.1364 55.6082C37.0341 55.6082 36.9317 55.557 36.7783 55.557H36.1643V57.5045H36.7271C36.9317 57.5045 37.0852 57.5045 37.1876 57.4532C37.2899 57.402 37.4434 57.3507 37.4946 57.2482C37.5969 57.1457 37.6481 57.0432 37.6992 56.9407C37.8527 56.787 37.8527 56.6332 37.8527 56.5307Z" fill="#9392A0"/>
<path d="M44.4539 58.5304C44.3515 58.8379 44.2492 59.0429 44.1469 59.2479C44.0445 59.4529 43.9422 59.5554 43.8399 59.6579C43.7375 59.7604 43.6352 59.8116 43.4817 59.8629C43.3282 59.9141 43.2259 59.9141 43.0724 59.9141C43.0212 59.9141 42.9701 59.9141 42.9189 59.9141C42.8677 59.9141 42.8166 59.9141 42.7654 59.8629C42.7142 59.8629 42.6631 59.8116 42.6119 59.8116C42.5608 59.8116 42.5608 59.7604 42.5096 59.7604L42.4584 59.7091V59.6579C42.4584 59.6579 42.4584 59.6066 42.4584 59.5554C42.4584 59.5041 42.4584 59.4529 42.4584 59.4016C42.4584 59.2991 42.4584 59.2479 42.5096 59.1966C42.5096 59.1454 42.5608 59.1454 42.6119 59.1454H42.6631C42.7142 59.1454 42.7142 59.1966 42.7654 59.1966C42.8166 59.1966 42.8677 59.2479 42.9189 59.2479C42.9701 59.2479 43.0212 59.2479 43.1236 59.2479C43.1747 59.2479 43.2259 59.2479 43.2771 59.2479C43.3282 59.2479 43.3794 59.1966 43.4306 59.1454C43.4817 59.0941 43.5329 59.0429 43.5841 58.9404C43.6352 58.8379 43.6864 58.7354 43.7375 58.6329L41.9979 55.1991C41.9979 55.1479 41.9468 55.0966 41.9468 55.0966C41.9468 55.0454 41.9468 55.0454 41.9979 55.0454C41.9979 55.0454 42.0491 54.9941 42.1003 54.9941C42.1514 54.9941 42.2026 54.9941 42.3049 54.9941C42.3561 54.9941 42.4584 54.9941 42.4584 54.9941C42.5096 54.9941 42.5608 54.9941 42.5608 54.9941C42.6119 54.9941 42.6119 55.0454 42.6119 55.0454L42.6631 55.0966L43.5329 56.8391C43.6352 57.0441 43.7375 57.2491 43.7887 57.4029C43.891 57.6079 43.9422 57.7616 44.0445 57.9666C44.0957 57.7616 44.198 57.6079 44.2492 57.4029C44.3004 57.1979 44.4027 56.9929 44.505 56.7879L45.1702 55.0454C45.1702 55.0454 45.1702 54.9941 45.2213 54.9941L45.2725 54.9429C45.3237 54.9429 45.3237 54.9429 45.3748 54.9429C45.426 54.9429 45.4772 54.9429 45.5283 54.9429C45.5795 54.9429 45.6818 54.9429 45.6818 54.9429C45.733 54.9429 45.7841 54.9429 45.7841 54.9941L45.8353 55.0454C45.8353 55.0454 45.8353 55.0966 45.8353 55.1479L44.4539 58.5304Z" fill="#9392A0"/>
<path d="M52.7953 58.4294C52.7953 58.6344 52.7441 58.7881 52.6929 58.9931C52.6418 59.1469 52.5394 59.3006 52.3859 59.4544C52.2325 59.6081 52.079 59.7106 51.8743 59.7619C51.6696 59.8644 51.3627 59.8644 51.0045 59.8644H49.8277C49.7765 59.8644 49.7254 59.8644 49.6742 59.8131C49.623 59.7619 49.623 59.7106 49.623 59.6081V55.3031C49.623 55.2006 49.623 55.1494 49.6742 55.0981C49.7254 55.0469 49.7765 55.0469 49.8277 55.0469H52.3348H52.3859L52.4371 55.0981C52.4371 55.0981 52.4371 55.1494 52.4371 55.2006C52.4371 55.2519 52.4371 55.2519 52.4371 55.3031C52.4371 55.3544 52.4371 55.4056 52.4371 55.4056C52.4371 55.4569 52.4371 55.4569 52.4371 55.5081C52.4371 55.5081 52.4371 55.5594 52.3859 55.5594H52.3348H50.237V57.0456H51.1068C51.4138 57.0456 51.6696 57.0969 51.8743 57.1481C52.079 57.1994 52.2325 57.3019 52.3859 57.4044C52.5394 57.5069 52.6418 57.6606 52.6929 57.8144C52.7441 58.0706 52.7953 58.2244 52.7953 58.4294ZM52.1301 58.4806C52.1301 58.3269 52.1301 58.2244 52.079 58.1219C52.0278 58.0194 51.9766 57.9169 51.8743 57.8656C51.772 57.8144 51.6696 57.7119 51.5673 57.7119C51.465 57.6606 51.2603 57.6606 51.0557 57.6606H50.237V59.4031H51.0557C51.2603 59.4031 51.4138 59.4031 51.5673 59.3519C51.6696 59.3006 51.772 59.2494 51.8743 59.1981C51.9766 59.1469 52.0278 59.0444 52.079 58.9419C52.1301 58.8394 52.1301 58.6344 52.1301 58.4806Z" fill="#9392A0"/>
<path d="M59.9051 58.3781C59.9051 58.5831 59.854 58.7881 59.8028 58.9419C59.7516 59.0956 59.6493 59.2494 59.4958 59.4031C59.3423 59.5569 59.1888 59.6594 58.933 59.7619C58.7283 59.8644 58.3702 59.9156 58.012 59.9156H56.9887C56.9376 59.9156 56.9376 59.9156 56.8864 59.9156C56.8352 59.9156 56.8352 59.9156 56.7841 59.8644C56.7841 59.8644 56.7329 59.8131 56.7329 59.7619C56.7329 59.7106 56.7329 59.7106 56.7329 59.6594V55.2006V55.1494L56.7841 55.0981C56.8352 55.0981 56.8352 55.0981 56.8864 55.0981C56.9376 55.0981 56.9887 55.0981 57.0399 55.0981C57.0911 55.0981 57.1422 55.0981 57.1934 55.0981C57.2446 55.0981 57.2446 55.0981 57.2957 55.0981C57.2957 55.0981 57.3469 55.0981 57.3469 55.1494V55.2006V57.0456H58.012C58.3702 57.0456 58.626 57.0969 58.8307 57.1481C59.0353 57.1994 59.1888 57.3019 59.3423 57.4044C59.4958 57.5069 59.5981 57.6606 59.7005 57.8656C59.854 57.9169 59.9051 58.1219 59.9051 58.3781ZM59.24 58.4294C59.24 58.2756 59.24 58.1731 59.1888 58.0194C59.1377 57.9169 59.0865 57.8144 58.9842 57.7119C58.8818 57.6094 58.7795 57.5581 58.626 57.5069C58.4725 57.4556 58.2679 57.4556 58.012 57.4556H57.3981V59.3006H58.0632C58.3702 59.3006 58.5748 59.2494 58.7283 59.1981C58.8818 59.1469 58.9842 59.0444 59.0353 58.9931C59.0865 58.8906 59.1888 58.7881 59.1888 58.6856C59.1888 58.6344 59.24 58.5319 59.24 58.4294ZM61.2866 59.7619C61.2866 59.8131 61.2866 59.8131 61.2866 59.7619C61.2866 59.8131 61.2354 59.8131 61.2354 59.8644C61.2354 59.8644 61.1843 59.8644 61.1331 59.8644C61.0819 59.8644 61.0308 59.8644 60.9796 59.8644C60.9284 59.8644 60.8773 59.8644 60.8261 59.8644C60.7749 59.8644 60.7749 59.8644 60.7238 59.8644C60.6726 59.8644 60.6726 59.8644 60.6726 59.8131V59.7619V55.1494V55.0981L60.7238 55.0469C60.7749 55.0469 60.7749 55.0469 60.8261 55.0469C60.8773 55.0469 60.9284 55.0469 60.9796 55.0469C61.0308 55.0469 61.0819 55.0469 61.1331 55.0469C61.1843 55.0469 61.1843 55.0469 61.2354 55.0469C61.2354 55.0469 61.2866 55.0469 61.2866 55.0981V55.1494V59.7619Z" fill="#9392A0"/>
<path d="M73.9772 59.7619C73.9772 59.8131 73.9772 59.8131 73.9772 59.7619C73.9772 59.8131 73.926 59.8131 73.926 59.8644C73.926 59.8644 73.8749 59.8644 73.8237 59.8644C73.7725 59.8644 73.7214 59.8644 73.6702 59.8644C73.619 59.8644 73.5679 59.8644 73.5167 59.8644C73.4655 59.8644 73.4655 59.8644 73.4144 59.8644C73.4144 59.8644 73.3632 59.8644 73.3632 59.8131V59.7619V56.5844C73.3632 56.4819 73.3632 56.4306 73.3632 56.3281C73.3632 56.2256 73.3632 56.1744 73.3632 56.1231C73.3632 56.1744 73.312 56.1744 73.312 56.2256C73.312 56.2769 73.2609 56.3281 73.2609 56.3281C73.2097 56.3794 73.2097 56.4306 73.1586 56.4819C73.1074 56.5331 73.1074 56.5844 73.0562 56.6356L70.9585 59.7619L70.9073 59.8131L70.8561 59.8644C70.8561 59.8644 70.805 59.8644 70.7538 59.8644C70.7026 59.8644 70.7026 59.8644 70.6515 59.8644C70.6003 59.8644 70.5491 59.8644 70.498 59.8644C70.4468 59.8644 70.4468 59.8644 70.3956 59.8644C70.3956 59.8644 70.3445 59.8644 70.3445 59.8131V59.7619V55.1494V55.0981L70.3956 55.0469C70.4468 55.0469 70.4468 55.0469 70.498 55.0469C70.5491 55.0469 70.6003 55.0469 70.6515 55.0469C70.7026 55.0469 70.7538 55.0469 70.805 55.0469C70.8561 55.0469 70.8561 55.0469 70.9073 55.0469C70.9073 55.0469 70.9585 55.0469 70.9585 55.0981V55.1494V58.3269C70.9585 58.3781 70.9585 58.4806 70.9585 58.5319C70.9585 58.6344 70.9585 58.6856 70.9585 58.7369C71.0096 58.6856 71.0608 58.5831 71.112 58.5319C71.1631 58.4294 71.2143 58.3781 71.2654 58.2756L73.3632 55.1494L73.4144 55.0981C73.4144 55.0981 73.4655 55.0981 73.4655 55.0469C73.4655 55.0469 73.5167 55.0469 73.5679 55.0469C73.619 55.0469 73.619 55.0469 73.6702 55.0469C73.7214 55.0469 73.7725 55.0469 73.8237 55.0469C73.8749 55.0469 73.8749 55.0469 73.926 55.0469C73.926 55.0469 73.9772 55.0469 73.9772 55.0981V55.1494V59.7619Z" fill="#9392A0"/>
<path d="M88.3 59.7619V59.8131L88.2488 59.8644C88.1977 59.8644 88.1977 59.8644 88.1465 59.8644C88.0954 59.8644 88.0442 59.8644 87.993 59.8644C87.9419 59.8644 87.8907 59.8644 87.8395 59.8644C87.7884 59.8644 87.7884 59.8644 87.7372 59.8644C87.7372 59.8644 87.686 59.8644 87.686 59.8131V59.7619V55.5594L85.9976 59.7619C85.9976 59.7619 85.9976 59.8131 85.9464 59.8131C85.9464 59.8131 85.8953 59.8131 85.8953 59.8644C85.8441 59.8644 85.8441 59.8644 85.7929 59.8644C85.7418 59.8644 85.6906 59.8644 85.6394 59.8644C85.5883 59.8644 85.5371 59.8644 85.4859 59.8644C85.4348 59.8644 85.4348 59.8644 85.3836 59.8644C85.3836 59.8644 85.3324 59.8644 85.3324 59.8131C85.3324 59.8131 85.3324 59.7619 85.2813 59.7619L83.644 55.5594V59.7619V59.8131L83.5928 59.8644C83.5417 59.8644 83.5417 59.8644 83.4905 59.8644C83.4393 59.8644 83.3882 59.8644 83.337 59.8644C83.2858 59.8644 83.2347 59.8644 83.1835 59.8644C83.1324 59.8644 83.1324 59.8644 83.0812 59.8644C83.0812 59.8644 83.03 59.8644 83.03 59.8131V59.7619V55.3544C83.03 55.2519 83.0812 55.2006 83.1324 55.1494C83.1835 55.0981 83.2347 55.0981 83.337 55.0981H83.7463C83.8487 55.0981 83.8998 55.0981 83.951 55.0981C84.0022 55.0981 84.0533 55.1494 84.1045 55.1494C84.1557 55.2006 84.2068 55.2006 84.2068 55.2519C84.258 55.3031 84.258 55.3544 84.3092 55.4056L85.6906 58.8906L87.1232 55.4056C87.1744 55.3544 87.1744 55.2519 87.2255 55.2006C87.2767 55.1494 87.2767 55.0981 87.3279 55.0981C87.379 55.0469 87.4302 55.0469 87.4814 55.0469C87.5325 55.0469 87.5837 55.0469 87.6349 55.0469H88.0442C88.0953 55.0469 88.0954 55.0469 88.1465 55.0469C88.1977 55.0469 88.1977 55.0981 88.2488 55.0981C88.2488 55.0981 88.3 55.1494 88.3 55.2006C88.3 55.2519 88.3 55.3031 88.3 55.3544V59.7619Z" fill="#9392A0"/>
<path d="M95.3112 59.6081C95.3112 59.6594 95.3112 59.7106 95.3112 59.7106C95.3112 59.7619 95.3112 59.7619 95.26 59.8131C95.2089 59.8644 95.2089 59.8644 95.2089 59.8644H95.1577H92.8553C92.8041 59.8644 92.753 59.8644 92.7018 59.8131C92.6506 59.7619 92.6506 59.7106 92.6506 59.6081V55.3031C92.6506 55.2006 92.6506 55.1494 92.7018 55.0981C92.753 55.0469 92.8041 55.0469 92.8553 55.0469H95.1577H95.2089L95.26 55.0981C95.26 55.0981 95.26 55.1494 95.26 55.2006C95.26 55.2519 95.26 55.2519 95.26 55.3031C95.26 55.3544 95.26 55.4056 95.26 55.4056C95.26 55.4569 95.26 55.4569 95.26 55.5081C95.26 55.5081 95.26 55.5594 95.2089 55.5594C95.1577 55.5594 95.1577 55.5594 95.1577 55.5594H93.2646V57.0969H94.9019H94.9531L95.0042 57.1481C95.0042 57.1481 95.0042 57.1994 95.0042 57.2506C95.0042 57.3019 95.0042 57.3019 95.0042 57.3531C95.0042 57.4044 95.0042 57.4556 95.0042 57.4556C95.0042 57.5069 95.0042 57.5069 95.0042 57.5581C95.0042 57.5581 95.0042 57.6094 94.9531 57.6094H94.9019H93.2646V59.3519H95.1577H95.2089C95.2089 59.3519 95.26 59.3519 95.26 59.4031C95.26 59.4031 95.2601 59.4544 95.3112 59.5056C95.3112 59.5056 95.3112 59.5569 95.3112 59.6081Z" fill="#9392A0"/>
<path d="M102.371 55.3031C102.371 55.3544 102.371 55.4056 102.371 55.4056C102.371 55.4569 102.371 55.4569 102.371 55.5081C102.371 55.5081 102.371 55.5594 102.32 55.5594H102.269H100.938V59.7619V59.8131L100.887 59.8644C100.887 59.8644 100.836 59.8644 100.785 59.8644C100.734 59.8644 100.683 59.8644 100.631 59.8644C100.58 59.8644 100.529 59.8644 100.478 59.8644C100.427 59.8644 100.427 59.8644 100.376 59.8644C100.376 59.8644 100.324 59.8644 100.324 59.8131V59.7619V55.5594H98.9942H98.943C98.943 55.5594 98.8918 55.5594 98.8918 55.5081C98.8918 55.5081 98.8918 55.4569 98.8918 55.4056C98.8918 55.3544 98.8918 55.3544 98.8918 55.3031C98.8918 55.2519 98.8918 55.2006 98.8918 55.2006C98.8918 55.1494 98.8918 55.1494 98.8918 55.0981C98.8918 55.0981 98.8918 55.0469 98.943 55.0469H98.9942H102.32H102.371L102.422 55.0981C102.422 55.0981 102.422 55.1494 102.422 55.2006C102.371 55.2519 102.371 55.2519 102.371 55.3031Z" fill="#9392A0"/>
<path d="M109.227 59.657C109.227 59.7082 109.278 59.7595 109.278 59.8107C109.278 59.862 109.278 59.862 109.227 59.862C109.227 59.862 109.176 59.9132 109.125 59.9132C109.074 59.9132 109.023 59.9132 108.92 59.9132C108.869 59.9132 108.767 59.9132 108.716 59.9132C108.664 59.9132 108.613 59.9132 108.613 59.9132C108.613 59.9132 108.562 59.9132 108.562 59.862C108.562 59.862 108.562 59.8107 108.511 59.8107L108.102 58.632H106.106L105.697 59.8107C105.697 59.8107 105.697 59.862 105.646 59.862L105.595 59.9132C105.595 59.9132 105.543 59.9132 105.492 59.9132C105.441 59.9132 105.39 59.9132 105.339 59.9132C105.288 59.9132 105.185 59.9132 105.185 59.9132C105.134 59.9132 105.083 59.9132 105.083 59.862L105.032 59.8107C105.032 59.7595 105.032 59.7082 105.083 59.657L106.72 55.1982C106.72 55.147 106.72 55.147 106.771 55.147L106.823 55.0957C106.874 55.0957 106.874 55.0957 106.925 55.0957C106.976 55.0957 107.027 55.0957 107.129 55.0957C107.232 55.0957 107.283 55.0957 107.334 55.0957C107.385 55.0957 107.436 55.0957 107.436 55.0957C107.488 55.0957 107.488 55.0957 107.488 55.147L107.539 55.1982L109.227 59.657ZM107.181 55.7107L106.362 58.1195H108.05L107.181 55.7107Z" fill="#9392A0"/>
<path d="M116.494 59.7629C116.443 59.8142 116.494 59.8142 116.494 59.7629C116.494 59.8142 116.443 59.8142 116.443 59.8654C116.443 59.8654 116.392 59.8654 116.341 59.8654C116.29 59.8654 116.238 59.8654 116.187 59.8654C116.136 59.8654 116.085 59.8654 116.034 59.8654C115.983 59.8654 115.983 59.8654 115.931 59.8654C115.931 59.8654 115.88 59.8654 115.88 59.8142V59.7629V55.5604H114.55C114.499 56.1241 114.397 56.6366 114.345 57.0979C114.294 57.5591 114.192 57.9179 114.141 58.2254C114.09 58.5329 113.987 58.8404 113.885 59.0454C113.783 59.2504 113.68 59.4554 113.578 59.5579C113.476 59.7117 113.322 59.7629 113.169 59.8142C113.015 59.8654 112.862 59.9167 112.657 59.9167H112.606L112.555 59.8654C112.555 59.8654 112.555 59.8142 112.503 59.7629C112.503 59.7117 112.503 59.6604 112.503 59.6604C112.503 59.6092 112.503 59.5579 112.503 59.5067C112.503 59.4554 112.503 59.4554 112.503 59.4042C112.503 59.4042 112.503 59.3529 112.555 59.3529H112.606C112.708 59.3529 112.759 59.3529 112.862 59.3017C112.964 59.2504 113.015 59.1992 113.117 59.0967C113.169 58.9942 113.271 58.8404 113.322 58.6867C113.373 58.4816 113.476 58.2766 113.527 57.9691C113.578 57.6616 113.629 57.3029 113.731 56.8929C113.783 56.4829 113.834 55.9704 113.936 55.4066C113.936 55.3041 113.987 55.2529 113.987 55.2016C114.038 55.1504 114.09 55.1504 114.141 55.1504H116.29C116.341 55.1504 116.392 55.1504 116.443 55.2016C116.494 55.2529 116.494 55.3041 116.494 55.4066V59.7629Z" fill="#9392A0"/>
<path d="M124.167 59.7629C124.167 59.8142 124.167 59.8142 124.167 59.7629C124.167 59.8142 124.116 59.8142 124.116 59.8654C124.116 59.8654 124.065 59.8654 124.014 59.8654C123.963 59.8654 123.912 59.8654 123.86 59.8654C123.809 59.8654 123.758 59.8654 123.707 59.8654C123.656 59.8654 123.656 59.8654 123.605 59.8654C123.605 59.8654 123.553 59.8654 123.553 59.8142V59.7629V55.5604H122.223C122.172 56.1241 122.07 56.6366 122.018 57.0979C121.967 57.5591 121.865 57.9179 121.814 58.2254C121.763 58.5329 121.66 58.8404 121.558 59.0454C121.456 59.2504 121.353 59.4554 121.251 59.5579C121.149 59.7117 120.995 59.7629 120.842 59.8142C120.688 59.8654 120.535 59.9167 120.33 59.9167H120.279L120.228 59.8654C120.228 59.8654 120.228 59.8142 120.177 59.7629C120.177 59.7117 120.177 59.6604 120.177 59.6604C120.177 59.6092 120.177 59.5579 120.177 59.5067C120.177 59.4554 120.177 59.4554 120.177 59.4042C120.177 59.4042 120.177 59.3529 120.228 59.3529H120.279C120.381 59.3529 120.432 59.3529 120.535 59.3017C120.637 59.2504 120.688 59.1992 120.79 59.0967C120.842 58.9942 120.944 58.8404 120.995 58.6867C121.046 58.4816 121.149 58.2766 121.2 57.9691C121.251 57.6616 121.302 57.3029 121.404 56.8929C121.456 56.4829 121.507 55.9704 121.609 55.4066C121.609 55.3041 121.66 55.2529 121.66 55.2016C121.711 55.1504 121.763 55.1504 121.814 55.1504H123.963C124.014 55.1504 124.065 55.1504 124.116 55.2016C124.167 55.2529 124.167 55.3041 124.167 55.4066V59.7629Z" fill="#9392A0"/>
<path d="M132.508 57.4044C132.508 57.8144 132.457 58.1219 132.355 58.4806C132.252 58.7881 132.15 59.0444 131.945 59.3006C131.741 59.5056 131.536 59.7106 131.28 59.8131C131.025 59.9156 130.666 59.9669 130.308 59.9669C129.95 59.9669 129.643 59.9156 129.387 59.8131C129.131 59.7106 128.927 59.5569 128.722 59.3519C128.569 59.1469 128.415 58.8906 128.313 58.5831C128.21 58.2756 128.21 57.9169 128.21 57.5069C128.21 57.1481 128.262 56.7894 128.364 56.4819C128.466 56.1744 128.569 55.9181 128.773 55.7131C128.978 55.5081 129.183 55.3031 129.438 55.2006C129.694 55.0981 130.052 55.0469 130.411 55.0469C130.769 55.0469 131.076 55.0981 131.332 55.2006C131.587 55.3031 131.792 55.4569 131.997 55.6619C132.15 55.8669 132.304 56.1231 132.406 56.4306C132.508 56.6869 132.508 56.9944 132.508 57.4044ZM131.843 57.4556C131.843 57.1994 131.843 56.9431 131.792 56.6869C131.741 56.4306 131.638 56.2256 131.536 56.0719C131.434 55.9181 131.28 55.7644 131.076 55.6619C130.871 55.5594 130.666 55.5081 130.359 55.5081C130.104 55.5081 129.848 55.5594 129.643 55.6619C129.438 55.7644 129.285 55.9181 129.183 56.0719C129.08 56.2256 128.978 56.4306 128.927 56.6869C128.876 56.9431 128.876 57.1481 128.876 57.4044C128.876 57.7119 128.876 57.9681 128.927 58.1731C128.978 58.4294 129.029 58.6344 129.183 58.7881C129.285 58.9419 129.438 59.0956 129.643 59.1981C129.848 59.3006 130.052 59.3519 130.359 59.3519C130.615 59.3519 130.871 59.3006 131.076 59.1981C131.28 59.0956 131.434 58.9419 131.536 58.7881C131.638 58.6344 131.741 58.4294 131.792 58.1731C131.843 57.9681 131.843 57.7119 131.843 57.4556Z" fill="#9392A0"/>
<path d="M140.028 59.7619C140.028 59.8131 140.028 59.8131 140.028 59.7619C140.028 59.8131 139.977 59.8131 139.977 59.8644C139.977 59.8644 139.926 59.8644 139.875 59.8644C139.824 59.8644 139.773 59.8644 139.721 59.8644C139.67 59.8644 139.619 59.8644 139.568 59.8644C139.517 59.8644 139.517 59.8644 139.466 59.8644C139.466 59.8644 139.414 59.8644 139.414 59.8131V59.7619V55.6106H137.214V59.7619V59.8131C137.214 59.8131 137.163 59.8131 137.163 59.8644C137.163 59.8644 137.112 59.8644 137.061 59.8644C137.01 59.8644 136.958 59.8644 136.907 59.8644C136.856 59.8644 136.805 59.8644 136.754 59.8644C136.703 59.8644 136.703 59.8644 136.652 59.8644C136.652 59.8644 136.6 59.8644 136.6 59.8131V59.7619V55.3031C136.6 55.2006 136.6 55.1494 136.652 55.0981C136.703 55.0469 136.754 55.0469 136.805 55.0469H139.824C139.875 55.0469 139.926 55.0469 139.977 55.0981C140.028 55.1494 140.028 55.2006 140.028 55.3031V59.7619Z" fill="#9392A0"/>
<path d="M147.348 56.4795C147.348 56.7357 147.297 56.9407 147.246 57.1457C147.143 57.3507 147.041 57.5045 146.887 57.6582C146.734 57.812 146.58 57.9145 146.325 57.9657C146.12 58.017 145.864 58.0682 145.557 58.0682H144.994V59.8107V59.862L144.943 59.9132C144.943 59.9132 144.892 59.9132 144.841 59.9132C144.79 59.9132 144.739 59.9132 144.687 59.9132C144.636 59.9132 144.585 59.9132 144.534 59.9132C144.483 59.9132 144.483 59.9132 144.432 59.9132C144.432 59.9132 144.38 59.9132 144.38 59.862V59.8107V55.352C144.38 55.2495 144.432 55.1982 144.483 55.147C144.534 55.0957 144.585 55.0957 144.636 55.0957H145.659C145.762 55.0957 145.864 55.0957 145.966 55.0957C146.069 55.0957 146.171 55.147 146.325 55.147C146.478 55.1982 146.58 55.2495 146.734 55.3007C146.887 55.4032 146.99 55.4545 147.092 55.6082C147.194 55.7107 147.246 55.8645 147.297 56.0182C147.297 56.1207 147.348 56.2745 147.348 56.4795ZM146.683 56.5307C146.683 56.3257 146.632 56.172 146.58 56.0182C146.529 55.8645 146.427 55.8132 146.325 55.7107C146.222 55.6595 146.12 55.6082 145.966 55.6082C145.864 55.6082 145.762 55.557 145.608 55.557H144.994V57.5045H145.557C145.762 57.5045 145.915 57.5045 146.018 57.4532C146.12 57.402 146.273 57.3507 146.325 57.2482C146.427 57.1457 146.478 57.0432 146.529 56.9407C146.632 56.787 146.683 56.6332 146.683 56.5307Z" fill="#9392A0"/>
<path d="M155.379 57.4044C155.379 57.8144 155.327 58.1219 155.225 58.4806C155.123 58.7881 155.021 59.0444 154.816 59.3006C154.611 59.5056 154.407 59.7106 154.151 59.8131C153.895 59.9156 153.537 59.9669 153.179 59.9669C152.82 59.9669 152.513 59.9156 152.258 59.8131C152.002 59.7106 151.797 59.5569 151.592 59.3519C151.439 59.1469 151.285 58.8906 151.183 58.5831C151.081 58.2756 151.081 57.9169 151.081 57.5069C151.081 57.1481 151.132 56.7894 151.234 56.4819C151.337 56.1744 151.439 55.9181 151.644 55.7131C151.848 55.5081 152.053 55.3031 152.309 55.2006C152.565 55.0981 152.923 55.0469 153.281 55.0469C153.639 55.0469 153.946 55.0981 154.202 55.2006C154.458 55.3031 154.662 55.4569 154.867 55.6619C155.072 55.8669 155.174 56.1231 155.276 56.4306C155.327 56.6869 155.379 56.9944 155.379 57.4044ZM154.714 57.4556C154.714 57.1994 154.714 56.9431 154.662 56.6869C154.611 56.4306 154.509 56.2256 154.407 56.0719C154.304 55.9181 154.151 55.7644 153.946 55.6619C153.741 55.5594 153.537 55.5081 153.23 55.5081C152.974 55.5081 152.718 55.5594 152.513 55.6619C152.309 55.7644 152.155 55.9181 152.053 56.0719C151.951 56.2256 151.848 56.4306 151.797 56.6869C151.746 56.9431 151.746 57.1481 151.746 57.4044C151.746 57.7119 151.746 57.9681 151.797 58.1731C151.848 58.4294 151.899 58.6344 152.053 58.7881C152.155 58.9419 152.309 59.0956 152.513 59.1981C152.718 59.3006 152.923 59.3519 153.23 59.3519C153.486 59.3519 153.741 59.3006 153.946 59.1981C154.151 59.0956 154.304 58.9419 154.407 58.7881C154.509 58.6344 154.611 58.4294 154.662 58.1731C154.662 57.9681 154.714 57.7119 154.714 57.4556Z" fill="#9392A0"/>
<path d="M162.647 59.7589V59.8102L162.595 59.8614C162.595 59.8614 162.544 59.8614 162.493 59.8614C162.442 59.8614 162.391 59.8614 162.34 59.8614C162.288 59.8614 162.186 59.8614 162.186 59.8614C162.135 59.8614 162.084 59.8614 162.084 59.8102C162.033 59.8102 162.033 59.7589 162.033 59.7589C162.033 59.7589 162.033 59.7077 161.981 59.7077L161.521 58.5289C161.47 58.3752 161.419 58.2214 161.316 58.1189C161.265 58.0164 161.163 57.9139 161.06 57.8627C160.958 57.8114 160.856 57.7602 160.753 57.7089C160.651 57.6577 160.498 57.6577 160.344 57.6577H160.088V59.7589V59.8102L160.037 59.8614C160.037 59.8614 159.986 59.8614 159.935 59.8614C159.884 59.8614 159.833 59.8614 159.781 59.8614C159.73 59.8614 159.679 59.8614 159.628 59.8614C159.577 59.8614 159.577 59.8614 159.526 59.8614C159.526 59.8614 159.474 59.8614 159.474 59.8102V59.7589V55.1464V55.0952L159.526 55.0439C159.526 55.0439 159.577 55.0439 159.628 55.0439C159.679 55.0439 159.73 55.0439 159.781 55.0439C159.833 55.0439 159.884 55.0439 159.935 55.0439C159.986 55.0439 159.986 55.0439 160.037 55.0439C160.037 55.0439 160.088 55.0439 160.088 55.0952V55.1464V57.0939H160.344C160.498 57.0939 160.6 57.0939 160.753 57.0427C160.907 56.9914 160.958 56.9402 161.06 56.8889C161.163 56.8377 161.214 56.7352 161.265 56.6327C161.316 56.5302 161.367 56.3764 161.419 56.2227L161.777 55.1464C161.777 55.1464 161.777 55.0952 161.828 55.0952L161.879 55.0439C161.879 55.0439 161.93 55.0439 161.981 54.9927C162.033 54.9927 162.084 54.9927 162.135 54.9927C162.186 54.9927 162.237 54.9927 162.288 54.9927C162.34 54.9927 162.34 54.9927 162.391 54.9927C162.391 54.9927 162.442 54.9927 162.442 55.0439V55.0952C162.442 55.1464 162.442 55.1464 162.442 55.1977C162.442 55.2489 162.442 55.2489 162.391 55.3002L162.033 56.3252C161.981 56.4789 161.93 56.6327 161.879 56.7352C161.828 56.8377 161.777 56.9402 161.674 56.9914C161.623 57.0939 161.521 57.1452 161.47 57.1964C161.367 57.2477 161.316 57.2989 161.214 57.2989C161.316 57.3502 161.419 57.4014 161.521 57.4527C161.623 57.5039 161.674 57.5552 161.777 57.6577C161.879 57.7602 161.93 57.8627 161.981 57.9652C162.033 58.0677 162.084 58.2214 162.186 58.3752L162.647 59.5027C162.647 59.5539 162.698 59.6052 162.698 59.6564C162.647 59.7077 162.647 59.7589 162.647 59.7589Z" fill="#9392A0"/>
<path d="M170.219 59.657C170.219 59.7082 170.27 59.7595 170.27 59.8107C170.27 59.862 170.27 59.862 170.219 59.862C170.219 59.862 170.167 59.9132 170.116 59.9132C170.065 59.9132 170.014 59.9132 169.912 59.9132C169.86 59.9132 169.758 59.9132 169.707 59.9132C169.656 59.9132 169.605 59.9132 169.605 59.9132C169.605 59.9132 169.553 59.9132 169.553 59.862C169.553 59.862 169.553 59.8107 169.502 59.8107L169.093 58.632H167.149L166.739 59.8107C166.739 59.8107 166.739 59.862 166.688 59.862L166.637 59.9132C166.637 59.9132 166.586 59.9132 166.535 59.9132C166.484 59.9132 166.432 59.9132 166.381 59.9132C166.33 59.9132 166.228 59.9132 166.228 59.9132C166.177 59.9132 166.125 59.9132 166.125 59.862L166.074 59.8107C166.074 59.7595 166.074 59.7082 166.125 59.657L167.763 55.1982C167.763 55.147 167.763 55.147 167.814 55.147L167.865 55.0957C167.916 55.0957 167.916 55.0957 167.967 55.0957C168.018 55.0957 168.07 55.0957 168.172 55.0957C168.274 55.0957 168.325 55.0957 168.377 55.0957C168.428 55.0957 168.479 55.0957 168.479 55.0957C168.53 55.0957 168.53 55.0957 168.53 55.147L168.581 55.1982L170.219 59.657ZM168.172 55.7107L167.353 58.1195H169.042L168.172 55.7107Z" fill="#9392A0"/>
<path d="M176.614 55.3031C176.614 55.3544 176.614 55.4056 176.614 55.4056C176.614 55.4569 176.614 55.4569 176.614 55.5081C176.614 55.5081 176.614 55.5594 176.563 55.5594H176.512H175.182V59.7619V59.8131L175.131 59.8644C175.131 59.8644 175.08 59.8644 175.028 59.8644C174.977 59.8644 174.926 59.8644 174.875 59.8644C174.824 59.8644 174.773 59.8644 174.721 59.8644C174.67 59.8644 174.67 59.8644 174.619 59.8644C174.619 59.8644 174.568 59.8644 174.568 59.8131V59.7619V55.5594H173.238H173.186C173.186 55.5594 173.135 55.5594 173.135 55.5081C173.135 55.5081 173.135 55.4569 173.135 55.4056C173.135 55.3544 173.135 55.3544 173.135 55.3031C173.135 55.2519 173.135 55.2006 173.135 55.2006C173.135 55.1494 173.135 55.1494 173.135 55.0981C173.135 55.0981 173.135 55.0469 173.186 55.0469H173.238H176.563H176.614L176.666 55.0981C176.666 55.0981 176.666 55.1494 176.666 55.2006C176.614 55.2519 176.614 55.2519 176.614 55.3031Z" fill="#9392A0"/>
<path d="M60.4695 45.766V29.2122H54.5856L54.4321 31.5697C53.1529 43.716 50.5947 46.1248 44.4037 46.176L43.8921 40.641C44.6084 40.6923 45.2735 40.4872 45.8875 40.026C47.2178 39.0522 48.5481 35.721 48.9063 30.391L49.3156 23.5747H66.0977V45.766H60.4695Z" fill="#9392A0"/>
<path d="M71.7266 45.7709V23.5796H77.4059V29.6271H80.4758C87.4342 29.6271 90.2483 32.8559 90.2483 37.3146C90.2483 42.0809 87.076 45.7709 80.0664 45.7709H71.7266ZM77.4059 34.1884V40.8509H79.9129C82.7782 40.8509 84.2108 39.7746 84.2108 37.5196C84.2108 35.3159 82.7782 34.1884 79.9641 34.1884H77.4059Z" fill="#9392A0"/>
<path d="M114.193 42.4819C112.351 44.9931 109.076 46.3256 105.392 46.3256C101.811 46.3256 98.8945 45.2494 96.6944 43.0969C94.4943 40.9956 93.3687 38.1769 93.3687 34.6406C93.3687 31.3094 94.4431 28.5931 96.6432 26.3381C98.7921 24.1343 101.555 23.0068 104.881 23.0068C108.82 23.0068 111.788 23.9806 113.783 26.0306L111.123 30.5406C109.639 29.1056 107.797 28.3881 105.597 28.3881C103.96 28.3881 102.476 29.0031 101.248 30.1819C100.02 31.3094 99.4061 32.8469 99.4061 34.7431C99.4061 36.6906 100.071 38.1769 101.299 39.4069C102.578 40.5344 104.113 41.1494 105.853 41.1494C108.002 41.1494 109.946 40.2781 111.583 38.4331L114.193 42.4819Z" fill="#9392A0"/>
<path d="M118.486 45.7709V23.5796H124.165V45.7709H118.486ZM139.463 23.5796L130.919 34.1371L140.486 45.7709H133.119L124.37 34.5471L132.351 23.5796H139.463Z" fill="#9392A0"/>
<path d="M141.256 34.6425C141.256 31.26 142.33 28.4925 144.581 26.2888C146.781 24.085 149.749 22.9575 153.331 22.9575C156.912 22.9575 159.828 24.0338 162.029 26.2888C164.229 28.4413 165.354 31.2088 165.354 34.6425C165.354 38.0763 164.229 40.7926 162.029 43.0476C159.828 45.2001 156.912 46.3276 153.331 46.3276C149.749 46.3276 146.781 45.2513 144.581 43.0476C142.381 40.8438 141.256 38.0763 141.256 34.6425ZM153.331 41.0488C156.861 41.0488 159.368 38.4863 159.368 34.6938C159.368 31.0038 156.81 28.39 153.331 28.39C149.954 28.39 147.293 30.9525 147.293 34.6938C147.344 38.3838 149.851 41.0488 153.331 41.0488Z" fill="#9392A0"/>
<path d="M170.013 45.766V23.5747H175.13L182.651 32.851L189.814 23.5747H194.777V45.766H189.098V32.1847L182.549 40.4872H182.395L175.641 32.1847V45.766H170.013Z" fill="#9392A0"/>
<path d="M35.0384 46.4857H41.4851L24.9077 8.66309H23.5263L7 46.4857H13.0886L16.4143 38.9007H31.7126L35.0384 46.4857ZM18.9214 33.2631L24.1402 21.3731L29.3079 33.2631H18.9214Z" fill="#9392A0"/>
<path d="M216.726 0L183.059 9.73752H207.004L216.726 0Z" fill="#9392A0"/>
<path d="M208.08 34.85L217.801 1.07617L208.08 10.8649V34.85Z" fill="#9392A0"/>
<path d="M204.088 11.269H180.399V17.0603H200.865V37.5604H206.544V16.8041V11.269H204.088Z" fill="#9392A0"/>
</svg>
