<svg width="1006" height="532" viewBox="0 0 1006 532" fill="none" xmlns="http://www.w3.org/2000/svg">
<rect x="-2" y="-2" width="1010" height="536" fill="#F6F4F7" stroke="#F2994A" stroke-width="4"/>
<path d="M175.073 -280.24C150.085 -345.255 26.4598 -377.361 46.8605 -247.909C50.2055 -226.684 50.542 -190.135 46.8605 -145.647C43.488 -104.894 -22.5326 -82.5951 -42.7987 -29.9377C-74.582 52.6446 44.2533 110.205 25.3423 153.617C0.573685 210.476 -75.2665 235.146 -117.216 266.254C-156.707 295.538 -181.861 342.526 -191.52 390.835C-208.464 475.587 -177.714 564.403 -93.0079 568.822C-50.6045 571.034 5.3201 552.097 75.5513 500.912C106.952 478.027 134.641 459.167 159.249 443.917C222.586 404.667 205.557 497.51 280.871 500.912C323.785 502.851 368.605 422.699 402.535 465.452C426.661 495.852 454.346 532.738 493.884 570.66C563.318 637.258 650.13 647.063 662.409 552.015C668.206 507.147 657.393 438.914 620.303 342.259C596.568 280.406 655.607 282.586 662.409 203.324C669.212 124.061 613.586 87.5082 653.854 54.7029L654.66 54.0457C685.352 29.0439 718.087 2.37848 735.964 -48.8381C751.363 -92.9561 749.891 -136.652 735.964 -170.228C721.057 -206.162 691.884 -230.504 653.854 -231.367C615.695 -232.234 568.619 -209.463 518.091 -151.045C484.778 -112.529 462.218 -202.149 402.535 -192.988C342.852 -183.827 334.557 -97.3543 298.803 -122.435C236.696 -166.001 204.339 -204.095 175.073 -280.24Z" stroke="black" stroke-opacity="0.05"/>
<path d="M67.5315 -219.587C49.4258 -337.433 162.399 -308.057 185.308 -248.454C213.356 -175.586 244.365 -141.435 302.632 -102.779C335.401 -80.0927 343.287 -159.048 397.935 -167.63C452.583 -176.211 473.461 -94.8848 504.036 -129.921C550.536 -183.059 593.773 -203.439 628.699 -202.153C663.399 -201.135 690.002 -178.615 703.442 -145.551C715.993 -114.632 717.029 -74.507 702.391 -34.1413C683.287 13.8396 655.7 43.7047 627.681 68.1234C591.085 98.5003 641.354 132.052 634.691 204.214C628.028 276.376 573.706 274.192 594.822 330.006C628.022 417.419 637.477 478.988 631.869 519.388C620.444 605.608 540.984 596.364 477.214 535.638C440.647 501.001 414.741 467.495 392.048 440.333C360.835 401.647 319.671 474.832 280.19 473.385C211.178 470.644 226.235 386.417 168.218 422.278C145.439 436.303 119.906 453.52 91.0416 474.326C25.9673 520.833 -25.3427 536.833 -63.69 533.646C-140.695 529.291 -168.553 448.154 -152.964 370.748C-144.004 326.499 -120.893 283.484 -84.6878 256.638C-44.994 227.202 24.7771 204.145 47.4398 150.263C64.6792 110.208 -43.5713 57.1982 -14.7743 -18.5769C3.54358 -67.1257 63.4959 -88.0537 66.6108 -125.687C70.0014 -166.651 70.1186 -200.207 67.5315 -219.587Z" stroke="black" stroke-opacity="0.05"/>
<path d="M109.792 -161.747C96.3051 -255.996 187.801 -232.174 206.517 -183.594C232.091 -117.529 260.359 -91.3737 310.861 -62.661C337.612 -44.8387 344.667 -108.5 389.163 -115.894C433.658 -123.287 451.14 -58.8144 476.193 -86.777C514.568 -129.18 550.062 -144.713 578.469 -142.593C606.453 -141.27 627.873 -122.47 638.362 -95.2537C648.138 -69.7506 648.301 -36.9002 635.208 -4.172C613.985 36.2798 597.577 72.3996 575.413 95.1854C546.216 120.604 585.694 148.043 579.319 205.767C572.944 263.491 528.137 261.307 543.98 304.86C569.347 373.504 576.071 421.543 570.847 452.878C561.148 521.159 496.515 513.069 444.17 464.285C413.597 436.333 391.288 409.697 371.493 389.099C345.763 358.673 311.973 417.683 279.418 417.224C223.114 415.814 234.204 349.093 186.915 378.058C167.829 389.587 146.644 403.461 122.896 420.04C68.2333 457.041 26.2302 467.115 -3.94505 461.993C-65.4295 457.781 -87.4608 392.27 -74.6049 329.811C-67.055 293.826 -48.0655 258.9 -18.487 237.018C16.6387 211.025 74.1662 191.27 92.5826 143.523C106.452 110.318 19.5378 66.584 42.3177 4.67337C56.7105 -35.4976 104.433 -53.6132 107.028 -84.8829C109.832 -118.663 110.858 -146.122 109.792 -161.747Z" stroke="black" stroke-opacity="0.05"/>
</svg>
