<svg width="148" height="117" viewBox="0 0 148 117" fill="none" xmlns="http://www.w3.org/2000/svg">
<path d="M148 1.52588e-05L148 33.4755C148 43.1024 146.253 53.1122 142.76 63.5049C139.16 74.007 134.29 83.9074 128.15 93.2062C121.904 102.614 114.917 110.546 107.189 117L80.5107 99.1136C86.7568 89.3773 91.9971 79.2034 96.2318 68.5919C100.361 58.0898 102.372 46.4937 102.266 33.8037L102.266 1.12606e-05L148 1.52588e-05ZM67.4893 8.22032e-06L67.4893 33.4755C67.4893 43.1024 65.7425 53.1122 62.2489 63.5049C58.6495 74.007 53.7797 83.9074 47.6395 93.2062C41.3934 102.614 34.4063 110.546 26.6781 117L-1.36951e-05 99.1136C6.24605 89.3773 11.4864 79.2034 15.721 68.5919C19.8498 58.0898 21.8612 46.4937 21.7553 33.8037L21.7554 4.22213e-06L67.4893 8.22032e-06Z" fill="#F6F4F7"/>
</svg>
