<svg width="1920" height="268" viewBox="0 0 1920 268" fill="none" xmlns="http://www.w3.org/2000/svg">
<path d="M1524.9 146.232L1643.96 146.232V265.295H1633.17C1573.37 265.295 1524.9 216.821 1524.9 157.024V146.232Z" stroke="#A3A3A3" stroke-opacity="0.3" stroke-width="5"/>
<path fill-rule="evenodd" clip-rule="evenodd" d="M1510.29 143.732L1386.23 143.732V267.795H1399.52C1460.7 267.795 1510.29 218.201 1510.29 157.024V143.732Z" fill="#A3A3A3" fill-opacity="0.2"/>
<path fill-rule="evenodd" clip-rule="evenodd" d="M1368.07 267.795H1245.52V143.732H1258.65C1319.08 143.732 1368.07 193.326 1368.07 254.503V267.795Z" fill="#A3A3A3" fill-opacity="0.2"/>
<path fill-rule="evenodd" clip-rule="evenodd" d="M1106.33 267.795H1230.39V143.732H1217.1C1155.92 143.732 1106.33 193.326 1106.33 254.503V267.795Z" fill="#A3A3A3" fill-opacity="0.2"/>
<path d="M1108.83 2.50006L1227.89 2.50006V121.563H1217.1C1157.3 121.563 1108.83 73.0888 1108.83 13.2926V2.50006Z" stroke="#A3A3A3" stroke-opacity="0.3" stroke-width="5"/>
<path fill-rule="evenodd" clip-rule="evenodd" d="M1366.56 124.063L1242.5 124.063V-2.28882e-05H1255.79C1316.97 -2.28882e-05 1366.56 49.5937 1366.56 110.771V124.063Z" fill="#A3A3A3" fill-opacity="0.2"/>
<path d="M1917.27 265.295H1798.21V146.232H1809C1868.8 146.232 1917.27 194.706 1917.27 254.503V265.295Z" stroke="#A3A3A3" stroke-opacity="0.3" stroke-width="5"/>
<path fill-rule="evenodd" clip-rule="evenodd" d="M1660.08 267.795H1782.63V143.732H1769.5C1709.06 143.732 1660.08 193.326 1660.08 254.503V267.795Z" fill="#A3A3A3" fill-opacity="0.2"/>
<path fill-rule="evenodd" clip-rule="evenodd" d="M1660.08 0L1782.63 0V124.063H1769.5C1709.06 124.063 1660.08 74.4695 1660.08 13.2925V0Z" fill="#A3A3A3" fill-opacity="0.2"/>
<path fill-rule="evenodd" clip-rule="evenodd" d="M1918.79 124.063L1796.24 124.063V-2.28882e-05H1809.37C1869.8 -2.28882e-05 1918.79 49.5937 1918.79 110.771V124.063Z" fill="#A3A3A3" fill-opacity="0.2"/>
<path d="M1504.77 121.563L1387.22 121.563V2.49998H1397.85C1456.87 2.49998 1504.77 50.9454 1504.77 110.771V121.563Z" stroke="#A3A3A3" stroke-opacity="0.3" stroke-width="5"/>
<path fill-rule="evenodd" clip-rule="evenodd" d="M1522.4 124.063L1646.46 124.063V-2.28882e-05H1633.17C1571.99 -2.28882e-05 1522.4 49.5937 1522.4 110.771V124.063Z" fill="#A3A3A3" fill-opacity="0.2"/>
<path d="M972.21 146.232L1091.27 146.232V265.295H1080.48C1020.68 265.295 972.21 216.821 972.21 157.024V146.232Z" stroke="#A3A3A3" stroke-opacity="0.3" stroke-width="5"/>
<path fill-rule="evenodd" clip-rule="evenodd" d="M957.607 143.732L833.544 143.732V267.795H846.836C908.013 267.795 957.607 218.201 957.607 157.024V143.732Z" fill="#A3A3A3" fill-opacity="0.2"/>
<path fill-rule="evenodd" clip-rule="evenodd" d="M815.388 267.795H692.838V143.732H705.968C766.399 143.732 815.388 193.326 815.388 254.503V267.795Z" fill="#A3A3A3" fill-opacity="0.2"/>
<path fill-rule="evenodd" clip-rule="evenodd" d="M553.645 267.795H677.708V143.732H664.416C603.239 143.732 553.645 193.326 553.645 254.503V267.795Z" fill="#A3A3A3" fill-opacity="0.2"/>
<path d="M556.145 2.50006L675.208 2.50006V121.563H664.416C604.619 121.563 556.145 73.0888 556.145 13.2926V2.50006Z" stroke="#A3A3A3" stroke-opacity="0.3" stroke-width="5"/>
<path fill-rule="evenodd" clip-rule="evenodd" d="M813.875 124.063L689.812 124.063V-2.28882e-05H703.104C764.281 -2.28882e-05 813.875 49.5937 813.875 110.771V124.063Z" fill="#A3A3A3" fill-opacity="0.2"/>
<path d="M952.081 121.563L834.531 121.563V2.49998H845.161C904.182 2.49998 952.081 50.9454 952.081 110.771V121.563Z" stroke="#A3A3A3" stroke-opacity="0.3" stroke-width="5"/>
<path fill-rule="evenodd" clip-rule="evenodd" d="M969.71 124.063L1093.77 124.063V-2.28882e-05H1080.48C1019.3 -2.28882e-05 969.71 49.5937 969.71 110.771V124.063Z" fill="#A3A3A3" fill-opacity="0.2"/>
<path d="M121.563 121.563L2.5001 121.563L2.50011 2.50009L13.2926 2.50009C73.0889 2.50009 121.563 50.9746 121.563 110.771L121.563 121.563Z" stroke="#A3A3A3" stroke-opacity="0.3" stroke-width="5"/>
<path fill-rule="evenodd" clip-rule="evenodd" d="M137.167 124.063L261.23 124.063L261.23 0.000110028L247.938 0.000108866C186.761 0.000103518 137.167 49.5939 137.167 110.771L137.167 124.063Z" fill="#A3A3A3" fill-opacity="0.2"/>
<path fill-rule="evenodd" clip-rule="evenodd" d="M279.386 6.10352e-05L401.936 7.17488e-05L401.936 124.063L388.806 124.063C328.375 124.063 279.386 74.4696 279.386 13.2926L279.386 6.10352e-05Z" fill="#A3A3A3" fill-opacity="0.2"/>
<path fill-rule="evenodd" clip-rule="evenodd" d="M541.129 0.00012207L417.066 0.000111224L417.066 124.063L430.358 124.063C491.535 124.063 541.129 74.4696 541.129 13.2926L541.129 0.00012207Z" fill="#A3A3A3" fill-opacity="0.2"/>
<path d="M538.629 265.295L419.566 265.295L419.566 146.232L430.358 146.232C490.154 146.232 538.629 194.706 538.629 254.503L538.629 265.295Z" stroke="#A3A3A3" stroke-opacity="0.3" stroke-width="5"/>
<path fill-rule="evenodd" clip-rule="evenodd" d="M280.899 143.732L404.962 143.732L404.962 267.795L391.669 267.795C330.492 267.795 280.899 218.201 280.899 157.024L280.899 143.732Z" fill="#A3A3A3" fill-opacity="0.2"/>
<path d="M142.693 146.232L260.243 146.232L260.243 265.295L249.613 265.295C190.591 265.295 142.693 216.85 142.693 157.024L142.693 146.232Z" stroke="#A3A3A3" stroke-opacity="0.3" stroke-width="5"/>
<path fill-rule="evenodd" clip-rule="evenodd" d="M125.063 143.732L1.0001 143.732L1.00009 267.795L14.2926 267.795C75.4696 267.795 125.063 218.201 125.063 157.024L125.063 143.732Z" fill="#A3A3A3" fill-opacity="0.2"/>
</svg>
