<svg width="375" height="252" viewBox="0 0 375 252" fill="none" xmlns="http://www.w3.org/2000/svg">
<g clip-path="url(#clip0_34_21646)">
<path fill-rule="evenodd" clip-rule="evenodd" d="M376.133 122.943H319.712V65.8258H325.758C353.579 65.8258 376.133 88.6582 376.133 116.823V122.943Z" fill="#A3A3A3" fill-opacity="0.2"/>
<path fill-rule="evenodd" clip-rule="evenodd" d="M255.63 122.943H312.747V65.8258H306.627C278.462 65.8258 255.63 88.6582 255.63 116.823V122.943Z" fill="#A3A3A3" fill-opacity="0.2"/>
<path d="M258.177 2.20063L310.2 2.20063V54.2234H306.628C279.869 54.2234 258.177 32.5314 258.177 5.77304V2.20063Z" stroke="#A3A3A3" stroke-opacity="0.3" stroke-width="5.09463"/>
<path fill-rule="evenodd" clip-rule="evenodd" d="M375.437 56.7706L318.32 56.7706V-0.346832H324.439C352.605 -0.346832 375.437 22.4856 375.437 50.6508V56.7706Z" fill="#A3A3A3" fill-opacity="0.2"/>
<path d="M195.279 68.3731H247.302V120.396H243.73C216.971 120.396 195.279 98.7039 195.279 71.9455V68.3731Z" stroke="#A3A3A3" stroke-opacity="0.3" stroke-width="5.09463"/>
<path fill-rule="evenodd" clip-rule="evenodd" d="M187.16 65.8258H130.042V122.943H136.162C164.327 122.943 187.16 100.111 187.16 71.9455V65.8258Z" fill="#A3A3A3" fill-opacity="0.2"/>
<path fill-rule="evenodd" clip-rule="evenodd" d="M121.683 122.943H65.2625V65.8258H71.3076C99.1294 65.8258 121.683 88.6582 121.683 116.823V122.943Z" fill="#A3A3A3" fill-opacity="0.2"/>
<path fill-rule="evenodd" clip-rule="evenodd" d="M1.17969 122.943H58.2971L58.2971 65.8258H52.1774C24.0121 65.8258 1.17969 88.6582 1.17969 116.823L1.17969 122.943Z" fill="#A3A3A3" fill-opacity="0.2"/>
<path d="M3.727 2.20063L55.7498 2.20063L55.7498 54.2234H52.1774C25.419 54.2234 3.727 32.5314 3.727 5.77304L3.727 2.20063Z" stroke="#A3A3A3" stroke-opacity="0.3" stroke-width="5.09463"/>
<path fill-rule="evenodd" clip-rule="evenodd" d="M120.987 56.7706L63.8694 56.7706L63.8694 -0.346832H69.9891C98.1544 -0.346832 120.987 22.4856 120.987 50.6508V56.7706Z" fill="#A3A3A3" fill-opacity="0.2"/>
<path d="M183.219 54.2233L131.893 54.2233V2.20048H135.391C161.776 2.20048 183.219 23.8629 183.219 50.6508V54.2233Z" stroke="#A3A3A3" stroke-opacity="0.3" stroke-width="5.09463"/>
<path fill-rule="evenodd" clip-rule="evenodd" d="M192.732 56.7706L249.849 56.7706V-0.346832H243.73C215.564 -0.346832 192.732 22.4856 192.732 50.6508V56.7706Z" fill="#A3A3A3" fill-opacity="0.2"/>
<path d="M258.171 197.776H310.194V249.799H306.621C279.863 249.799 258.171 228.107 258.171 201.349V197.776Z" stroke="#A3A3A3" stroke-opacity="0.3" stroke-width="5.09463"/>
<path fill-rule="evenodd" clip-rule="evenodd" d="M250.051 195.229H192.934V252.347H199.054C227.219 252.347 250.051 229.514 250.051 201.349V195.229Z" fill="#A3A3A3" fill-opacity="0.2"/>
<path fill-rule="evenodd" clip-rule="evenodd" d="M184.575 252.347H128.154V195.229H134.199C162.021 195.229 184.575 218.062 184.575 246.227V252.347Z" fill="#A3A3A3" fill-opacity="0.2"/>
<path fill-rule="evenodd" clip-rule="evenodd" d="M64.0713 252.347H121.189V195.229H115.069C86.9037 195.229 64.0713 218.062 64.0713 246.227V252.347Z" fill="#A3A3A3" fill-opacity="0.2"/>
<path d="M66.6191 131.604H118.642V183.627H115.069C88.3111 183.627 66.6191 161.935 66.6191 135.176V131.604Z" stroke="#A3A3A3" stroke-opacity="0.3" stroke-width="5.09463"/>
<path fill-rule="evenodd" clip-rule="evenodd" d="M183.878 186.174H126.761V129.057H132.881C161.046 129.057 183.878 151.889 183.878 180.054V186.174Z" fill="#A3A3A3" fill-opacity="0.2"/>
<path fill-rule="evenodd" clip-rule="evenodd" d="M319.01 252.347H375.431V195.229H369.386C341.564 195.229 319.01 218.062 319.01 246.227V252.347Z" fill="#A3A3A3" fill-opacity="0.2"/>
<path fill-rule="evenodd" clip-rule="evenodd" d="M319.01 129.057H375.431V186.174H369.386C341.564 186.174 319.01 163.342 319.01 135.176V129.057Z" fill="#A3A3A3" fill-opacity="0.2"/>
<path d="M246.111 183.627H194.784V131.604H198.282C224.668 131.604 246.111 153.266 246.111 180.054V183.627Z" stroke="#A3A3A3" stroke-opacity="0.3" stroke-width="5.09463"/>
<path fill-rule="evenodd" clip-rule="evenodd" d="M255.624 186.174H312.741V129.057H306.621C278.456 129.057 255.624 151.889 255.624 180.054V186.174Z" fill="#A3A3A3" fill-opacity="0.2"/>
<path d="M3.7209 197.777H55.7437L55.7437 249.799H52.1713C25.4129 249.799 3.7209 228.107 3.7209 201.349L3.7209 197.777Z" stroke="#A3A3A3" stroke-opacity="0.3" stroke-width="5.09463"/>
<path fill-rule="evenodd" clip-rule="evenodd" d="M1.17358 186.174H58.291L58.291 129.057H52.1713C24.006 129.057 1.17358 151.889 1.17358 180.054L1.17358 186.174Z" fill="#A3A3A3" fill-opacity="0.2"/>
</g>
<defs>
<clipPath id="clip0_34_21646">
<rect width="375" height="252" fill="white"/>
</clipPath>
</defs>
</svg>
